<svg width="682" height="646" fill="none" xmlns="http://www.w3.org/2000/svg"><g clip-path="url(#clip0)"><path d="M3.518 27.62a4.306 4.306 0 004.301-4.31c0-2.38-1.925-4.31-4.301-4.31a4.306 4.306 0 00-4.302 4.31c0 2.38 1.926 4.31 4.302 4.31zm34.415 0a4.306 4.306 0 004.302-4.31c0-2.38-1.926-4.31-4.302-4.31a4.306 4.306 0 00-4.302 4.31c0 2.38 1.926 4.31 4.302 4.31zm38.717-4.31c0 2.38-1.926 4.31-4.302 4.31a4.306 4.306 0 01-4.302-4.31c0-2.38 1.926-4.31 4.302-4.31a4.306 4.306 0 014.302 4.31zm30.113 4.31a4.306 4.306 0 004.302-4.31c0-2.38-1.926-4.31-4.302-4.31a4.306 4.306 0 00-4.302 4.31c0 2.38 1.926 4.31 4.302 4.31zm38.717-4.31c0 2.38-1.926 4.31-4.302 4.31a4.306 4.306 0 01-4.302-4.31c0-2.38 1.926-4.31 4.302-4.31a4.306 4.306 0 014.302 4.31zm30.113 4.31a4.306 4.306 0 004.302-4.31c0-2.38-1.926-4.31-4.302-4.31a4.306 4.306 0 00-4.302 4.31c0 2.38 1.926 4.31 4.302 4.31zm38.717-4.31c0 2.38-1.926 4.31-4.302 4.31a4.306 4.306 0 01-4.302-4.31c0-2.38 1.926-4.31 4.302-4.31a4.306 4.306 0 014.302 4.31zm30.113 4.31a4.306 4.306 0 004.302-4.31c0-2.38-1.926-4.31-4.302-4.31a4.306 4.306 0 00-4.302 4.31c0 2.38 1.926 4.31 4.302 4.31zm38.717-4.31c0 2.38-1.926 4.31-4.302 4.31a4.306 4.306 0 01-4.302-4.31c0-2.38 1.926-4.31 4.302-4.31a4.306 4.306 0 014.302 4.31zm30.113 4.31a4.306 4.306 0 004.302-4.31c0-2.38-1.926-4.31-4.302-4.31a4.306 4.306 0 00-4.301 4.31c0 2.38 1.926 4.31 4.301 4.31zm38.717-4.31c0 2.38-1.926 4.31-4.301 4.31a4.306 4.306 0 01-4.302-4.31c0-2.38 1.926-4.31 4.302-4.31a4.306 4.306 0 014.301 4.31zm30.114 4.31a4.306 4.306 0 004.302-4.31c0-2.38-1.926-4.31-4.302-4.31a4.306 4.306 0 00-4.302 4.31c0 2.38 1.926 4.31 4.302 4.31zm38.717-4.31c0 2.38-1.926 4.31-4.302 4.31a4.306 4.306 0 01-4.302-4.31c0-2.38 1.926-4.31 4.302-4.31a4.306 4.306 0 014.302 4.31zm30.113 4.31a4.306 4.306 0 004.302-4.31c0-2.38-1.926-4.31-4.302-4.31a4.306 4.306 0 00-4.302 4.31c0 2.38 1.926 4.31 4.302 4.31zM7.82 57.793c0 2.38-1.926 4.31-4.302 4.31a4.306 4.306 0 01-4.302-4.31c0-2.38 1.926-4.31 4.302-4.31a4.306 4.306 0 014.301 4.31zm30.113 4.31a4.306 4.306 0 004.302-4.31c0-2.38-1.926-4.31-4.302-4.31a4.306 4.306 0 00-4.302 4.31c0 2.38 1.926 4.31 4.302 4.31zm38.717-4.31c0 2.38-1.926 4.31-4.302 4.31a4.306 4.306 0 01-4.302-4.31c0-2.38 1.926-4.31 4.302-4.31a4.306 4.306 0 014.302 4.31zm30.113 4.31a4.306 4.306 0 004.302-4.31c0-2.38-1.926-4.31-4.302-4.31a4.306 4.306 0 00-4.302 4.31c0 2.38 1.926 4.31 4.302 4.31zm38.717-4.31c0 2.38-1.926 4.31-4.302 4.31a4.306 4.306 0 01-4.302-4.31c0-2.38 1.926-4.31 4.302-4.31a4.306 4.306 0 014.302 4.31zm30.113 4.31a4.306 4.306 0 004.302-4.31c0-2.38-1.926-4.31-4.302-4.31a4.306 4.306 0 00-4.302 4.31c0 2.38 1.926 4.31 4.302 4.31zm38.717-4.31c0 2.38-1.926 4.31-4.302 4.31a4.306 4.306 0 01-4.302-4.31c0-2.38 1.926-4.31 4.302-4.31a4.306 4.306 0 014.302 4.31zm30.113 4.31a4.306 4.306 0 004.302-4.31c0-2.38-1.926-4.31-4.302-4.31a4.306 4.306 0 00-4.302 4.31c0 2.38 1.926 4.31 4.302 4.31zm38.717-4.31c0 2.38-1.926 4.31-4.302 4.31a4.306 4.306 0 01-4.302-4.31c0-2.38 1.926-4.31 4.302-4.31a4.306 4.306 0 014.302 4.31zm30.113 4.31a4.306 4.306 0 004.302-4.31c0-2.38-1.926-4.31-4.302-4.31a4.306 4.306 0 00-4.301 4.31c0 2.38 1.926 4.31 4.301 4.31zm38.717-4.31c0 2.38-1.926 4.31-4.301 4.31a4.306 4.306 0 01-4.302-4.31c0-2.38 1.926-4.31 4.302-4.31a4.306 4.306 0 014.301 4.31zm30.114 4.31a4.306 4.306 0 004.302-4.31c0-2.38-1.926-4.31-4.302-4.31a4.306 4.306 0 00-4.302 4.31c0 2.38 1.926 4.31 4.302 4.31zm38.717-4.31c0 2.38-1.926 4.31-4.302 4.31a4.306 4.306 0 01-4.302-4.31c0-2.38 1.926-4.31 4.302-4.31a4.306 4.306 0 014.302 4.31zm30.113 4.31a4.306 4.306 0 004.302-4.31c0-2.38-1.926-4.31-4.302-4.31a4.306 4.306 0 00-4.302 4.31c0 2.38 1.926 4.31 4.302 4.31zM7.82 92.276c0 2.38-1.926 4.31-4.302 4.31a4.306 4.306 0 01-4.302-4.31c0-2.38 1.926-4.31 4.302-4.31a4.306 4.306 0 014.301 4.31zm30.113 4.31a4.306 4.306 0 004.302-4.31c0-2.38-1.926-4.31-4.302-4.31a4.306 4.306 0 00-4.302 4.31c0 2.38 1.926 4.31 4.302 4.31zm38.717-4.31c0 2.38-1.926 4.31-4.302 4.31a4.306 4.306 0 01-4.302-4.31c0-2.38 1.926-4.31 4.302-4.31a4.306 4.306 0 014.302 4.31zm30.113 4.31a4.306 4.306 0 004.302-4.31c0-2.38-1.926-4.31-4.302-4.31a4.306 4.306 0 00-4.302 4.31c0 2.38 1.926 4.31 4.302 4.31zm38.717-4.31c0 2.38-1.926 4.31-4.302 4.31a4.306 4.306 0 01-4.302-4.31c0-2.38 1.926-4.31 4.302-4.31a4.306 4.306 0 014.302 4.31zm30.113 4.31a4.306 4.306 0 004.302-4.31c0-2.38-1.926-4.31-4.302-4.31a4.306 4.306 0 00-4.302 4.31c0 2.38 1.926 4.31 4.302 4.31zm38.717-4.31c0 2.38-1.926 4.31-4.302 4.31a4.306 4.306 0 01-4.302-4.31c0-2.38 1.926-4.31 4.302-4.31a4.306 4.306 0 014.302 4.31zm30.113 4.31a4.306 4.306 0 004.302-4.31c0-2.38-1.926-4.31-4.302-4.31a4.306 4.306 0 00-4.302 4.31c0 2.38 1.926 4.31 4.302 4.31zm38.717-4.31c0 2.38-1.926 4.31-4.302 4.31a4.306 4.306 0 01-4.302-4.31c0-2.38 1.926-4.31 4.302-4.31a4.306 4.306 0 014.302 4.31zm30.113 4.31a4.306 4.306 0 004.302-4.31c0-2.38-1.926-4.31-4.302-4.31a4.306 4.306 0 00-4.301 4.31c0 2.38 1.926 4.31 4.301 4.31zm38.717-4.31c0 2.38-1.926 4.31-4.301 4.31a4.306 4.306 0 01-4.302-4.31c0-2.38 1.926-4.31 4.302-4.31a4.306 4.306 0 014.301 4.31zm30.114 4.31a4.306 4.306 0 004.302-4.31c0-2.38-1.926-4.31-4.302-4.31a4.306 4.306 0 00-4.302 4.31c0 2.38 1.926 4.31 4.302 4.31zm38.717-4.31c0 2.38-1.926 4.31-4.302 4.31a4.306 4.306 0 01-4.302-4.31c0-2.38 1.926-4.31 4.302-4.31a4.306 4.306 0 014.302 4.31zm30.113 4.31a4.306 4.306 0 004.302-4.31c0-2.38-1.926-4.31-4.302-4.31a4.306 4.306 0 00-4.302 4.31c0 2.38 1.926 4.31 4.302 4.31zM7.82 126.759c0 2.38-1.926 4.31-4.302 4.31a4.306 4.306 0 01-4.302-4.31 4.306 4.306 0 014.302-4.311 4.306 4.306 0 014.301 4.311zm30.113 4.31a4.306 4.306 0 004.302-4.31 4.306 4.306 0 00-4.302-4.311 4.306 4.306 0 00-4.302 4.311c0 2.38 1.926 4.31 4.302 4.31zm38.717-4.31c0 2.38-1.926 4.31-4.302 4.31a4.306 4.306 0 01-4.302-4.31 4.306 4.306 0 014.302-4.311 4.306 4.306 0 014.302 4.311zm30.113 4.31a4.306 4.306 0 004.302-4.31 4.306 4.306 0 00-4.302-4.311 4.306 4.306 0 00-4.302 4.311c0 2.38 1.926 4.31 4.302 4.31zm38.717-4.31c0 2.38-1.926 4.31-4.302 4.31a4.306 4.306 0 01-4.302-4.31 4.306 4.306 0 014.302-4.311 4.306 4.306 0 014.302 4.311zm30.113 4.31a4.306 4.306 0 004.302-4.31 4.306 4.306 0 00-4.302-4.311 4.306 4.306 0 00-4.302 4.311c0 2.38 1.926 4.31 4.302 4.31zm38.717-4.31c0 2.38-1.926 4.31-4.302 4.31a4.306 4.306 0 01-4.302-4.31 4.306 4.306 0 014.302-4.311 4.306 4.306 0 014.302 4.311zm30.113 4.31a4.306 4.306 0 004.302-4.31 4.306 4.306 0 00-4.302-4.311 4.306 4.306 0 00-4.302 4.311c0 2.38 1.926 4.31 4.302 4.31zm38.717-4.31c0 2.38-1.926 4.31-4.302 4.31a4.306 4.306 0 01-4.302-4.31 4.306 4.306 0 014.302-4.311 4.306 4.306 0 014.302 4.311zm30.113 4.31a4.306 4.306 0 004.302-4.31 4.306 4.306 0 00-4.302-4.311 4.306 4.306 0 00-4.301 4.311c0 2.38 1.926 4.31 4.301 4.31zm38.717-4.31c0 2.38-1.926 4.31-4.301 4.31a4.306 4.306 0 01-4.302-4.31 4.306 4.306 0 014.302-4.311 4.306 4.306 0 014.301 4.311zm30.114 4.31a4.306 4.306 0 004.302-4.31 4.306 4.306 0 00-4.302-4.311 4.306 4.306 0 00-4.302 4.311c0 2.38 1.926 4.31 4.302 4.31zm38.717-4.31c0 2.38-1.926 4.31-4.302 4.31a4.306 4.306 0 01-4.302-4.31 4.306 4.306 0 014.302-4.311 4.306 4.306 0 014.302 4.311zm30.113 4.31a4.306 4.306 0 004.302-4.31 4.306 4.306 0 00-4.302-4.311 4.306 4.306 0 00-4.302 4.311c0 2.38 1.926 4.31 4.302 4.31zM7.82 161.241a4.306 4.306 0 01-4.302 4.311 4.306 4.306 0 01-4.302-4.311c0-2.38 1.926-4.31 4.302-4.31a4.306 4.306 0 014.301 4.31zm30.113 4.311a4.306 4.306 0 004.302-4.311c0-2.38-1.926-4.31-4.302-4.31a4.306 4.306 0 00-4.302 4.31 4.306 4.306 0 004.302 4.311zm38.717-4.311a4.306 4.306 0 01-4.302 4.311 4.306 4.306 0 01-4.302-4.311c0-2.38 1.926-4.31 4.302-4.31a4.306 4.306 0 014.302 4.31zm30.113 4.311a4.306 4.306 0 004.302-4.311c0-2.38-1.926-4.31-4.302-4.31a4.306 4.306 0 00-4.302 4.31 4.306 4.306 0 004.302 4.311zm38.717-4.311a4.306 4.306 0 01-4.302 4.311 4.306 4.306 0 01-4.302-4.311c0-2.38 1.926-4.31 4.302-4.31a4.306 4.306 0 014.302 4.31zm30.113 4.311a4.306 4.306 0 004.302-4.311c0-2.38-1.926-4.31-4.302-4.31a4.306 4.306 0 00-4.302 4.31 4.306 4.306 0 004.302 4.311zm38.717-4.311a4.306 4.306 0 01-4.302 4.311 4.306 4.306 0 01-4.302-4.311c0-2.38 1.926-4.31 4.302-4.31a4.306 4.306 0 014.302 4.31zm30.113 4.311a4.306 4.306 0 004.302-4.311c0-2.38-1.926-4.31-4.302-4.31a4.306 4.306 0 00-4.302 4.31 4.306 4.306 0 004.302 4.311zm38.717-4.311a4.306 4.306 0 01-4.302 4.311 4.306 4.306 0 01-4.302-4.311c0-2.38 1.926-4.31 4.302-4.31a4.306 4.306 0 014.302 4.31zm30.113 4.311a4.306 4.306 0 004.302-4.311c0-2.38-1.926-4.31-4.302-4.31a4.306 4.306 0 00-4.301 4.31 4.306 4.306 0 004.301 4.311zm38.717-4.311a4.306 4.306 0 01-4.301 4.311 4.306 4.306 0 01-4.302-4.311c0-2.38 1.926-4.31 4.302-4.31a4.306 4.306 0 014.301 4.31zm30.114 4.311a4.306 4.306 0 004.302-4.311c0-2.38-1.926-4.31-4.302-4.31a4.306 4.306 0 00-4.302 4.31 4.306 4.306 0 004.302 4.311zm38.717-4.311a4.306 4.306 0 01-4.302 4.311 4.306 4.306 0 01-4.302-4.311c0-2.38 1.926-4.31 4.302-4.31a4.306 4.306 0 014.302 4.31zm30.113 4.311a4.306 4.306 0 004.302-4.311c0-2.38-1.926-4.31-4.302-4.31a4.306 4.306 0 00-4.302 4.31 4.306 4.306 0 004.302 4.311zM7.82 195.724a4.305 4.305 0 01-4.302 4.31 4.306 4.306 0 01-4.302-4.31c0-2.38 1.926-4.31 4.302-4.31a4.306 4.306 0 014.301 4.31zm30.113 4.31a4.306 4.306 0 004.302-4.31c0-2.38-1.926-4.31-4.302-4.31a4.306 4.306 0 00-4.302 4.31 4.306 4.306 0 004.302 4.31zm38.717-4.31a4.306 4.306 0 01-4.302 4.31 4.306 4.306 0 01-4.302-4.31c0-2.38 1.926-4.31 4.302-4.31a4.306 4.306 0 014.302 4.31zm30.113 4.31a4.306 4.306 0 004.302-4.31c0-2.38-1.926-4.31-4.302-4.31a4.306 4.306 0 00-4.302 4.31 4.306 4.306 0 004.302 4.31zm38.717-4.31a4.306 4.306 0 01-4.302 4.31 4.306 4.306 0 01-4.302-4.31c0-2.38 1.926-4.31 4.302-4.31a4.306 4.306 0 014.302 4.31zm30.113 4.31a4.306 4.306 0 004.302-4.31c0-2.38-1.926-4.31-4.302-4.31a4.306 4.306 0 00-4.302 4.31 4.306 4.306 0 004.302 4.31zm38.717-4.31a4.306 4.306 0 01-4.302 4.31 4.306 4.306 0 01-4.302-4.31c0-2.38 1.926-4.31 4.302-4.31a4.306 4.306 0 014.302 4.31zm30.113 4.31a4.306 4.306 0 004.302-4.31c0-2.38-1.926-4.31-4.302-4.31a4.306 4.306 0 00-4.302 4.31 4.306 4.306 0 004.302 4.31zm38.717-4.31a4.306 4.306 0 01-4.302 4.31 4.306 4.306 0 01-4.302-4.31c0-2.38 1.926-4.31 4.302-4.31a4.306 4.306 0 014.302 4.31zm30.113 4.31a4.306 4.306 0 004.302-4.31c0-2.38-1.926-4.31-4.302-4.31a4.306 4.306 0 00-4.301 4.31 4.305 4.305 0 004.301 4.31zm38.717-4.31a4.305 4.305 0 01-4.301 4.31 4.306 4.306 0 01-4.302-4.31c0-2.38 1.926-4.31 4.302-4.31a4.306 4.306 0 014.301 4.31zm30.114 4.31a4.306 4.306 0 004.302-4.31c0-2.38-1.926-4.31-4.302-4.31a4.306 4.306 0 00-4.302 4.31 4.306 4.306 0 004.302 4.31zm38.717-4.31a4.306 4.306 0 01-4.302 4.31 4.306 4.306 0 01-4.302-4.31c0-2.38 1.926-4.31 4.302-4.31a4.306 4.306 0 014.302 4.31zm30.113 4.31a4.306 4.306 0 004.302-4.31c0-2.38-1.926-4.31-4.302-4.31a4.306 4.306 0 00-4.302 4.31 4.306 4.306 0 004.302 4.31zM7.82 230.207c0 2.38-1.926 4.31-4.302 4.31a4.306 4.306 0 01-4.302-4.31 4.306 4.306 0 014.302-4.31 4.305 4.305 0 014.301 4.31zm30.113 4.31a4.306 4.306 0 004.302-4.31 4.306 4.306 0 00-4.302-4.31 4.306 4.306 0 00-4.302 4.31c0 2.38 1.926 4.31 4.302 4.31zm38.717-4.31c0 2.38-1.926 4.31-4.302 4.31a4.306 4.306 0 01-4.302-4.31 4.306 4.306 0 014.302-4.31 4.306 4.306 0 014.302 4.31zm30.113 4.31a4.306 4.306 0 004.302-4.31 4.306 4.306 0 00-4.302-4.31 4.306 4.306 0 00-4.302 4.31c0 2.38 1.926 4.31 4.302 4.31zm38.717-4.31c0 2.38-1.926 4.31-4.302 4.31a4.306 4.306 0 01-4.302-4.31 4.306 4.306 0 014.302-4.31 4.306 4.306 0 014.302 4.31zm30.113 4.31a4.306 4.306 0 004.302-4.31 4.306 4.306 0 00-4.302-4.31 4.306 4.306 0 00-4.302 4.31c0 2.38 1.926 4.31 4.302 4.31zm38.717-4.31c0 2.38-1.926 4.31-4.302 4.31a4.306 4.306 0 01-4.302-4.31 4.306 4.306 0 014.302-4.31 4.306 4.306 0 014.302 4.31zm30.113 4.31a4.306 4.306 0 004.302-4.31 4.306 4.306 0 00-4.302-4.31 4.306 4.306 0 00-4.302 4.31c0 2.38 1.926 4.31 4.302 4.31zm38.717-4.31c0 2.38-1.926 4.31-4.302 4.31a4.306 4.306 0 01-4.302-4.31 4.306 4.306 0 014.302-4.31 4.306 4.306 0 014.302 4.31zm30.113 4.31a4.306 4.306 0 004.302-4.31 4.306 4.306 0 00-4.302-4.31 4.305 4.305 0 00-4.301 4.31c0 2.38 1.926 4.31 4.301 4.31zm38.717-4.31c0 2.38-1.926 4.31-4.301 4.31a4.306 4.306 0 01-4.302-4.31 4.306 4.306 0 014.302-4.31 4.305 4.305 0 014.301 4.31zm30.114 4.31a4.306 4.306 0 004.302-4.31 4.306 4.306 0 00-4.302-4.31 4.306 4.306 0 00-4.302 4.31c0 2.38 1.926 4.31 4.302 4.31zm38.717-4.31c0 2.38-1.926 4.31-4.302 4.31a4.306 4.306 0 01-4.302-4.31 4.306 4.306 0 014.302-4.31 4.306 4.306 0 014.302 4.31zm30.113 4.31a4.306 4.306 0 004.302-4.31 4.306 4.306 0 00-4.302-4.31 4.306 4.306 0 00-4.302 4.31c0 2.38 1.926 4.31 4.302 4.31zM7.82 264.69c0 2.38-1.926 4.31-4.302 4.31a4.306 4.306 0 01-4.302-4.31 4.306 4.306 0 014.302-4.311 4.306 4.306 0 014.301 4.311zM37.933 269a4.306 4.306 0 004.302-4.31 4.306 4.306 0 00-4.302-4.311 4.306 4.306 0 00-4.302 4.311c0 2.38 1.926 4.31 4.302 4.31zm38.717-4.31c0 2.38-1.926 4.31-4.302 4.31a4.306 4.306 0 01-4.302-4.31 4.306 4.306 0 014.302-4.311 4.306 4.306 0 014.302 4.311zm30.113 4.31a4.306 4.306 0 004.302-4.31 4.306 4.306 0 00-4.302-4.311 4.306 4.306 0 00-4.302 4.311c0 2.38 1.926 4.31 4.302 4.31zm38.717-4.31c0 2.38-1.926 4.31-4.302 4.31a4.306 4.306 0 01-4.302-4.31 4.306 4.306 0 014.302-4.311 4.306 4.306 0 014.302 4.311zm30.113 4.31a4.306 4.306 0 004.302-4.31 4.306 4.306 0 00-4.302-4.311 4.306 4.306 0 00-4.302 4.311c0 2.38 1.926 4.31 4.302 4.31zm38.717-4.31c0 2.38-1.926 4.31-4.302 4.31a4.306 4.306 0 01-4.302-4.31 4.306 4.306 0 014.302-4.311 4.306 4.306 0 014.302 4.311zm30.113 4.31a4.306 4.306 0 004.302-4.31 4.306 4.306 0 00-4.302-4.311 4.306 4.306 0 00-4.302 4.311c0 2.38 1.926 4.31 4.302 4.31zm38.717-4.31c0 2.38-1.926 4.31-4.302 4.31a4.306 4.306 0 01-4.302-4.31 4.306 4.306 0 014.302-4.311 4.306 4.306 0 014.302 4.311zm30.113 4.31a4.306 4.306 0 004.302-4.31 4.306 4.306 0 00-4.302-4.311 4.306 4.306 0 00-4.301 4.311c0 2.38 1.926 4.31 4.301 4.31zm38.717-4.31c0 2.38-1.926 4.31-4.301 4.31a4.306 4.306 0 01-4.302-4.31 4.306 4.306 0 014.302-4.311 4.306 4.306 0 014.301 4.311zm30.114 4.31a4.306 4.306 0 004.302-4.31 4.306 4.306 0 00-4.302-4.311 4.306 4.306 0 00-4.302 4.311c0 2.38 1.926 4.31 4.302 4.31zm38.717-4.31c0 2.38-1.926 4.31-4.302 4.31a4.306 4.306 0 01-4.302-4.31 4.306 4.306 0 014.302-4.311 4.306 4.306 0 014.302 4.311zm30.113 4.31a4.306 4.306 0 004.302-4.31 4.306 4.306 0 00-4.302-4.311 4.306 4.306 0 00-4.302 4.311c0 2.38 1.926 4.31 4.302 4.31z" opacity=".5" fill="#BAD9E7"/><path fill-rule="evenodd" clip-rule="evenodd" d="M469.401 25.39s145.226 16.626 133.194 159.466c-8.726 103.732 54.059 141.673 72.595 199.785 20.059 62.674-21.122 227.169-187.865 172.094-166.742-55.076-174.497 38.997-262.59 79.959-88.093 40.963-349.143-308.72-14.197-500.667C315.941 75.549 321.935 23.257 469.401 25.389z" fill="url(#paint0_linear)"/></g><defs><linearGradient id="paint0_linear" x1="513.456" y1="37.701" x2="248.652" y2="661.85" gradientUnits="userSpaceOnUse"><stop stop-color="#BAD9E7" stop-opacity=".44"/><stop offset="1" stop-color="#fff"/></linearGradient><clipPath id="clip0"><path fill="#fff" d="M0 0h682v646H0z"/></clipPath></defs></svg>