<svg width="580" height="573" fill="none" xmlns="http://www.w3.org/2000/svg"><path fill-rule="evenodd" clip-rule="evenodd" d="M367.534 82.294s107.213 12.311 98.379 117.661c-6.407 76.506 39.954 104.51 53.657 147.378 14.829 46.233-15.516 167.544-138.626 126.867-123.109-40.678-128.802 28.704-193.82 58.886-65.017 30.183-257.844-227.817-10.648-369.277 77.789-44.571 82.197-83.138 191.058-81.515z" fill="url(#paint0_linear)"/><path d="M18.16 335.345a3.167 3.167 0 003.16-3.173A3.166 3.166 0 0018.16 329a3.166 3.166 0 00-3.16 3.172 3.167 3.167 0 003.16 3.173zm25.283 0a3.167 3.167 0 003.16-3.173 3.166 3.166 0 00-3.16-3.172 3.166 3.166 0 00-3.16 3.172 3.167 3.167 0 003.16 3.173zm28.444-3.173a3.167 3.167 0 01-3.16 3.173 3.167 3.167 0 01-3.161-3.173 3.166 3.166 0 013.16-3.172c1.746 0 3.16 1.42 3.16 3.172zm22.123 3.173a3.167 3.167 0 003.16-3.173A3.166 3.166 0 0094.01 329a3.166 3.166 0 00-3.16 3.172 3.167 3.167 0 003.16 3.173zm28.443-3.173a3.167 3.167 0 01-3.161 3.173 3.167 3.167 0 01-3.16-3.173 3.166 3.166 0 013.16-3.172 3.166 3.166 0 013.161 3.172zm22.122 3.173a3.167 3.167 0 003.161-3.173 3.166 3.166 0 00-3.161-3.172 3.166 3.166 0 00-3.16 3.172 3.167 3.167 0 003.16 3.173zm28.444-3.173a3.167 3.167 0 01-3.161 3.173 3.167 3.167 0 01-3.16-3.173 3.166 3.166 0 013.16-3.172 3.166 3.166 0 013.161 3.172zm22.123 3.173a3.167 3.167 0 003.16-3.173 3.166 3.166 0 00-3.16-3.172 3.166 3.166 0 00-3.161 3.172 3.167 3.167 0 003.161 3.173zm28.443-3.173a3.167 3.167 0 01-3.16 3.173 3.167 3.167 0 01-3.161-3.173 3.166 3.166 0 013.161-3.172c1.745 0 3.16 1.42 3.16 3.172zm22.123 3.173a3.167 3.167 0 003.16-3.173 3.166 3.166 0 00-3.16-3.172 3.166 3.166 0 00-3.161 3.172 3.167 3.167 0 003.161 3.173zm28.443-3.173a3.167 3.167 0 01-3.16 3.173 3.167 3.167 0 01-3.161-3.173 3.166 3.166 0 013.161-3.172c1.745 0 3.16 1.42 3.16 3.172zm22.123 3.173a3.167 3.167 0 003.16-3.173 3.166 3.166 0 00-3.16-3.172 3.166 3.166 0 00-3.161 3.172 3.167 3.167 0 003.161 3.173zm28.443-3.173a3.167 3.167 0 01-3.16 3.173 3.167 3.167 0 01-3.161-3.173 3.166 3.166 0 013.161-3.172c1.745 0 3.16 1.42 3.16 3.172zm22.123 3.173a3.167 3.167 0 003.16-3.173 3.166 3.166 0 00-3.16-3.172 3.166 3.166 0 00-3.161 3.172 3.167 3.167 0 003.161 3.173zM21.32 357.552a3.166 3.166 0 01-3.16 3.172 3.166 3.166 0 01-3.16-3.172 3.167 3.167 0 013.16-3.173 3.167 3.167 0 013.16 3.173zm22.123 3.172c1.746 0 3.16-1.42 3.16-3.172a3.167 3.167 0 00-3.16-3.173 3.167 3.167 0 00-3.16 3.173 3.166 3.166 0 003.16 3.172zm28.444-3.172a3.166 3.166 0 01-3.16 3.172 3.166 3.166 0 01-3.161-3.172 3.167 3.167 0 013.16-3.173 3.167 3.167 0 013.16 3.173zm22.123 3.172c1.745 0 3.16-1.42 3.16-3.172a3.167 3.167 0 00-3.16-3.173 3.167 3.167 0 00-3.16 3.173 3.166 3.166 0 003.16 3.172zm28.443-3.172a3.166 3.166 0 01-3.161 3.172 3.166 3.166 0 01-3.16-3.172 3.167 3.167 0 013.16-3.173 3.167 3.167 0 013.161 3.173zm22.122 3.172a3.166 3.166 0 003.161-3.172 3.167 3.167 0 00-3.161-3.173 3.167 3.167 0 00-3.16 3.173 3.166 3.166 0 003.16 3.172zm28.444-3.172a3.166 3.166 0 01-3.161 3.172 3.166 3.166 0 01-3.16-3.172 3.167 3.167 0 013.16-3.173 3.167 3.167 0 013.161 3.173zm22.123 3.172c1.745 0 3.16-1.42 3.16-3.172a3.167 3.167 0 00-3.16-3.173 3.167 3.167 0 00-3.161 3.173 3.166 3.166 0 003.161 3.172zm28.443-3.172a3.166 3.166 0 01-3.16 3.172 3.166 3.166 0 01-3.161-3.172 3.167 3.167 0 013.161-3.173 3.167 3.167 0 013.16 3.173zm22.123 3.172c1.745 0 3.16-1.42 3.16-3.172a3.167 3.167 0 00-3.16-3.173 3.167 3.167 0 00-3.161 3.173 3.166 3.166 0 003.161 3.172zm28.443-3.172a3.166 3.166 0 01-3.16 3.172 3.166 3.166 0 01-3.161-3.172 3.167 3.167 0 013.161-3.173 3.167 3.167 0 013.16 3.173zm22.123 3.172c1.745 0 3.16-1.42 3.16-3.172a3.167 3.167 0 00-3.16-3.173 3.167 3.167 0 00-3.161 3.173 3.166 3.166 0 003.161 3.172zm28.443-3.172a3.166 3.166 0 01-3.16 3.172 3.166 3.166 0 01-3.161-3.172 3.167 3.167 0 013.161-3.173 3.167 3.167 0 013.16 3.173zm22.123 3.172c1.745 0 3.16-1.42 3.16-3.172a3.167 3.167 0 00-3.16-3.173 3.167 3.167 0 00-3.161 3.173 3.166 3.166 0 003.161 3.172zM21.32 382.931a3.166 3.166 0 01-3.16 3.172 3.166 3.166 0 01-3.16-3.172 3.166 3.166 0 013.16-3.172c1.746 0 3.16 1.42 3.16 3.172zm22.123 3.172c1.746 0 3.16-1.42 3.16-3.172a3.166 3.166 0 00-3.16-3.172 3.166 3.166 0 00-3.16 3.172 3.166 3.166 0 003.16 3.172zm28.444-3.172a3.166 3.166 0 01-3.16 3.172 3.166 3.166 0 01-3.161-3.172 3.166 3.166 0 013.16-3.172c1.746 0 3.16 1.42 3.16 3.172zm22.123 3.172c1.745 0 3.16-1.42 3.16-3.172a3.166 3.166 0 00-3.16-3.172 3.166 3.166 0 00-3.16 3.172 3.166 3.166 0 003.16 3.172zm28.443-3.172a3.166 3.166 0 01-3.161 3.172 3.166 3.166 0 01-3.16-3.172 3.166 3.166 0 013.16-3.172 3.166 3.166 0 013.161 3.172zm22.122 3.172a3.166 3.166 0 003.161-3.172 3.166 3.166 0 00-3.161-3.172 3.166 3.166 0 00-3.16 3.172 3.166 3.166 0 003.16 3.172zm28.444-3.172a3.166 3.166 0 01-3.161 3.172 3.166 3.166 0 01-3.16-3.172 3.166 3.166 0 013.16-3.172 3.166 3.166 0 013.161 3.172zm22.123 3.172c1.745 0 3.16-1.42 3.16-3.172a3.166 3.166 0 00-3.16-3.172 3.166 3.166 0 00-3.161 3.172 3.166 3.166 0 003.161 3.172zm28.443-3.172a3.166 3.166 0 01-3.16 3.172 3.166 3.166 0 01-3.161-3.172 3.166 3.166 0 013.161-3.172c1.745 0 3.16 1.42 3.16 3.172zm22.123 3.172c1.745 0 3.16-1.42 3.16-3.172a3.166 3.166 0 00-3.16-3.172 3.166 3.166 0 00-3.161 3.172 3.166 3.166 0 003.161 3.172zm28.443-3.172a3.166 3.166 0 01-3.16 3.172 3.166 3.166 0 01-3.161-3.172 3.166 3.166 0 013.161-3.172c1.745 0 3.16 1.42 3.16 3.172zm22.123 3.172c1.745 0 3.16-1.42 3.16-3.172a3.166 3.166 0 00-3.16-3.172 3.166 3.166 0 00-3.161 3.172 3.166 3.166 0 003.161 3.172zm28.443-3.172a3.166 3.166 0 01-3.16 3.172 3.166 3.166 0 01-3.161-3.172 3.166 3.166 0 013.161-3.172c1.745 0 3.16 1.42 3.16 3.172zm22.123 3.172c1.745 0 3.16-1.42 3.16-3.172a3.166 3.166 0 00-3.16-3.172 3.166 3.166 0 00-3.161 3.172 3.166 3.166 0 003.161 3.172zM21.32 408.31a3.167 3.167 0 01-3.16 3.173A3.167 3.167 0 0115 408.31a3.166 3.166 0 013.16-3.172c1.746 0 3.16 1.42 3.16 3.172zm22.123 3.173a3.167 3.167 0 003.16-3.173 3.166 3.166 0 00-3.16-3.172 3.166 3.166 0 00-3.16 3.172 3.167 3.167 0 003.16 3.173zm28.444-3.173a3.167 3.167 0 01-3.16 3.173 3.167 3.167 0 01-3.161-3.173 3.166 3.166 0 013.16-3.172c1.746 0 3.16 1.42 3.16 3.172zm22.123 3.173a3.167 3.167 0 003.16-3.173 3.166 3.166 0 00-3.16-3.172 3.166 3.166 0 00-3.16 3.172 3.167 3.167 0 003.16 3.173zm28.443-3.173a3.167 3.167 0 01-3.161 3.173 3.167 3.167 0 01-3.16-3.173 3.166 3.166 0 013.16-3.172 3.166 3.166 0 013.161 3.172zm22.122 3.173a3.167 3.167 0 003.161-3.173 3.166 3.166 0 00-3.161-3.172 3.166 3.166 0 00-3.16 3.172 3.167 3.167 0 003.16 3.173zm28.444-3.173a3.167 3.167 0 01-3.161 3.173 3.167 3.167 0 01-3.16-3.173 3.166 3.166 0 013.16-3.172 3.166 3.166 0 013.161 3.172zm22.123 3.173a3.167 3.167 0 003.16-3.173 3.166 3.166 0 00-3.16-3.172 3.166 3.166 0 00-3.161 3.172 3.167 3.167 0 003.161 3.173zm28.443-3.173a3.167 3.167 0 01-3.16 3.173 3.167 3.167 0 01-3.161-3.173 3.166 3.166 0 013.161-3.172c1.745 0 3.16 1.42 3.16 3.172zm22.123 3.173a3.167 3.167 0 003.16-3.173 3.166 3.166 0 00-3.16-3.172 3.166 3.166 0 00-3.161 3.172 3.167 3.167 0 003.161 3.173zm28.443-3.173a3.167 3.167 0 01-3.16 3.173 3.167 3.167 0 01-3.161-3.173 3.166 3.166 0 013.161-3.172c1.745 0 3.16 1.42 3.16 3.172zm22.123 3.173a3.167 3.167 0 003.16-3.173 3.166 3.166 0 00-3.16-3.172 3.166 3.166 0 00-3.161 3.172 3.167 3.167 0 003.161 3.173zm28.443-3.173a3.167 3.167 0 01-3.16 3.173 3.167 3.167 0 01-3.161-3.173 3.166 3.166 0 013.161-3.172c1.745 0 3.16 1.42 3.16 3.172zm22.123 3.173a3.167 3.167 0 003.16-3.173 3.166 3.166 0 00-3.16-3.172 3.166 3.166 0 00-3.161 3.172 3.167 3.167 0 003.161 3.173zM21.32 433.69a3.166 3.166 0 01-3.16 3.172A3.166 3.166 0 0115 433.69a3.167 3.167 0 013.16-3.173 3.167 3.167 0 013.16 3.173zm22.123 3.172c1.746 0 3.16-1.42 3.16-3.172a3.167 3.167 0 00-3.16-3.173 3.167 3.167 0 00-3.16 3.173 3.166 3.166 0 003.16 3.172zm28.444-3.172a3.166 3.166 0 01-3.16 3.172 3.166 3.166 0 01-3.161-3.172 3.167 3.167 0 013.16-3.173 3.167 3.167 0 013.16 3.173zm22.123 3.172c1.745 0 3.16-1.42 3.16-3.172a3.167 3.167 0 00-3.16-3.173 3.167 3.167 0 00-3.16 3.173 3.166 3.166 0 003.16 3.172zm28.443-3.172a3.166 3.166 0 01-3.161 3.172 3.166 3.166 0 01-3.16-3.172 3.167 3.167 0 013.16-3.173 3.167 3.167 0 013.161 3.173zm22.122 3.172a3.166 3.166 0 003.161-3.172 3.167 3.167 0 00-3.161-3.173 3.167 3.167 0 00-3.16 3.173 3.166 3.166 0 003.16 3.172zm28.444-3.172a3.166 3.166 0 01-3.161 3.172 3.166 3.166 0 01-3.16-3.172 3.167 3.167 0 013.16-3.173 3.167 3.167 0 013.161 3.173zm22.123 3.172c1.745 0 3.16-1.42 3.16-3.172a3.167 3.167 0 00-3.16-3.173 3.167 3.167 0 00-3.161 3.173 3.166 3.166 0 003.161 3.172zm28.443-3.172a3.166 3.166 0 01-3.16 3.172 3.166 3.166 0 01-3.161-3.172 3.167 3.167 0 013.161-3.173 3.167 3.167 0 013.16 3.173zm22.123 3.172c1.745 0 3.16-1.42 3.16-3.172a3.167 3.167 0 00-3.16-3.173 3.167 3.167 0 00-3.161 3.173 3.166 3.166 0 003.161 3.172zm28.443-3.172a3.166 3.166 0 01-3.16 3.172 3.166 3.166 0 01-3.161-3.172 3.167 3.167 0 013.161-3.173 3.167 3.167 0 013.16 3.173zm22.123 3.172c1.745 0 3.16-1.42 3.16-3.172a3.167 3.167 0 00-3.16-3.173 3.167 3.167 0 00-3.161 3.173 3.166 3.166 0 003.161 3.172zm28.443-3.172a3.166 3.166 0 01-3.16 3.172 3.166 3.166 0 01-3.161-3.172 3.167 3.167 0 013.161-3.173 3.167 3.167 0 013.16 3.173zm22.123 3.172c1.745 0 3.16-1.42 3.16-3.172a3.167 3.167 0 00-3.16-3.173 3.167 3.167 0 00-3.161 3.173 3.166 3.166 0 003.161 3.172zM21.32 459.069a3.166 3.166 0 01-3.16 3.172 3.166 3.166 0 01-3.16-3.172 3.166 3.166 0 013.16-3.172c1.746 0 3.16 1.42 3.16 3.172zm22.123 3.172c1.746 0 3.16-1.42 3.16-3.172a3.166 3.166 0 00-3.16-3.172 3.166 3.166 0 00-3.16 3.172 3.166 3.166 0 003.16 3.172zm28.444-3.172a3.166 3.166 0 01-3.16 3.172 3.166 3.166 0 01-3.161-3.172 3.166 3.166 0 013.16-3.172c1.746 0 3.16 1.42 3.16 3.172zm22.123 3.172c1.745 0 3.16-1.42 3.16-3.172a3.166 3.166 0 00-3.16-3.172 3.166 3.166 0 00-3.16 3.172 3.166 3.166 0 003.16 3.172zm28.443-3.172a3.166 3.166 0 01-3.161 3.172 3.166 3.166 0 01-3.16-3.172 3.166 3.166 0 013.16-3.172 3.166 3.166 0 013.161 3.172zm22.122 3.172a3.166 3.166 0 003.161-3.172 3.166 3.166 0 00-3.161-3.172 3.166 3.166 0 00-3.16 3.172 3.166 3.166 0 003.16 3.172zm28.444-3.172a3.166 3.166 0 01-3.161 3.172 3.166 3.166 0 01-3.16-3.172 3.166 3.166 0 013.16-3.172 3.166 3.166 0 013.161 3.172zm22.123 3.172c1.745 0 3.16-1.42 3.16-3.172a3.166 3.166 0 00-3.16-3.172 3.166 3.166 0 00-3.161 3.172 3.166 3.166 0 003.161 3.172zm28.443-3.172a3.166 3.166 0 01-3.16 3.172 3.166 3.166 0 01-3.161-3.172 3.166 3.166 0 013.161-3.172c1.745 0 3.16 1.42 3.16 3.172zm22.123 3.172c1.745 0 3.16-1.42 3.16-3.172a3.166 3.166 0 00-3.16-3.172 3.166 3.166 0 00-3.161 3.172 3.166 3.166 0 003.161 3.172zm28.443-3.172a3.166 3.166 0 01-3.16 3.172 3.166 3.166 0 01-3.161-3.172 3.166 3.166 0 013.161-3.172c1.745 0 3.16 1.42 3.16 3.172zm22.123 3.172c1.745 0 3.16-1.42 3.16-3.172a3.166 3.166 0 00-3.16-3.172 3.166 3.166 0 00-3.161 3.172 3.166 3.166 0 003.161 3.172zm28.443-3.172a3.166 3.166 0 01-3.16 3.172 3.166 3.166 0 01-3.161-3.172 3.166 3.166 0 013.161-3.172c1.745 0 3.16 1.42 3.16 3.172zm22.123 3.172c1.745 0 3.16-1.42 3.16-3.172a3.166 3.166 0 00-3.16-3.172 3.166 3.166 0 00-3.161 3.172 3.166 3.166 0 003.161 3.172zM21.32 484.448a3.167 3.167 0 01-3.16 3.173 3.167 3.167 0 01-3.16-3.173 3.166 3.166 0 013.16-3.172c1.746 0 3.16 1.42 3.16 3.172zm22.123 3.173a3.167 3.167 0 003.16-3.173 3.166 3.166 0 00-3.16-3.172 3.166 3.166 0 00-3.16 3.172 3.167 3.167 0 003.16 3.173zm28.444-3.173a3.167 3.167 0 01-3.16 3.173 3.167 3.167 0 01-3.161-3.173 3.166 3.166 0 013.16-3.172c1.746 0 3.16 1.42 3.16 3.172zm22.123 3.173a3.167 3.167 0 003.16-3.173 3.166 3.166 0 00-3.16-3.172 3.166 3.166 0 00-3.16 3.172 3.167 3.167 0 003.16 3.173zm28.443-3.173a3.167 3.167 0 01-3.161 3.173 3.167 3.167 0 01-3.16-3.173 3.166 3.166 0 013.16-3.172 3.166 3.166 0 013.161 3.172zm22.122 3.173a3.167 3.167 0 003.161-3.173 3.166 3.166 0 00-3.161-3.172 3.166 3.166 0 00-3.16 3.172 3.167 3.167 0 003.16 3.173zm28.444-3.173a3.167 3.167 0 01-3.161 3.173 3.167 3.167 0 01-3.16-3.173 3.166 3.166 0 013.16-3.172 3.166 3.166 0 013.161 3.172zm22.123 3.173a3.167 3.167 0 003.16-3.173 3.166 3.166 0 00-3.16-3.172 3.166 3.166 0 00-3.161 3.172 3.167 3.167 0 003.161 3.173zm28.443-3.173a3.167 3.167 0 01-3.16 3.173 3.167 3.167 0 01-3.161-3.173 3.166 3.166 0 013.161-3.172c1.745 0 3.16 1.42 3.16 3.172zm22.123 3.173a3.167 3.167 0 003.16-3.173 3.166 3.166 0 00-3.16-3.172 3.166 3.166 0 00-3.161 3.172 3.167 3.167 0 003.161 3.173zm28.443-3.173a3.167 3.167 0 01-3.16 3.173 3.167 3.167 0 01-3.161-3.173 3.166 3.166 0 013.161-3.172c1.745 0 3.16 1.42 3.16 3.172zm22.123 3.173a3.167 3.167 0 003.16-3.173 3.166 3.166 0 00-3.16-3.172 3.166 3.166 0 00-3.161 3.172 3.167 3.167 0 003.161 3.173zm28.443-3.173a3.167 3.167 0 01-3.16 3.173 3.167 3.167 0 01-3.161-3.173 3.166 3.166 0 013.161-3.172c1.745 0 3.16 1.42 3.16 3.172zm22.123 3.173a3.167 3.167 0 003.16-3.173 3.166 3.166 0 00-3.16-3.172 3.166 3.166 0 00-3.161 3.172 3.167 3.167 0 003.161 3.173zM21.32 509.828A3.166 3.166 0 0118.16 513a3.166 3.166 0 01-3.16-3.172 3.167 3.167 0 013.16-3.173 3.167 3.167 0 013.16 3.173zM43.443 513c1.746 0 3.16-1.42 3.16-3.172a3.167 3.167 0 00-3.16-3.173 3.167 3.167 0 00-3.16 3.173 3.166 3.166 0 003.16 3.172zm28.444-3.172a3.166 3.166 0 01-3.16 3.172 3.166 3.166 0 01-3.161-3.172 3.167 3.167 0 013.16-3.173 3.167 3.167 0 013.16 3.173zM94.01 513c1.745 0 3.16-1.42 3.16-3.172a3.167 3.167 0 00-3.16-3.173 3.167 3.167 0 00-3.16 3.173A3.166 3.166 0 0094.01 513zm28.443-3.172a3.166 3.166 0 01-3.161 3.172 3.166 3.166 0 01-3.16-3.172 3.167 3.167 0 013.16-3.173 3.167 3.167 0 013.161 3.173zM144.575 513a3.166 3.166 0 003.161-3.172 3.167 3.167 0 00-3.161-3.173 3.167 3.167 0 00-3.16 3.173 3.166 3.166 0 003.16 3.172zm28.444-3.172a3.166 3.166 0 01-3.161 3.172 3.166 3.166 0 01-3.16-3.172 3.167 3.167 0 013.16-3.173 3.167 3.167 0 013.161 3.173zM195.142 513c1.745 0 3.16-1.42 3.16-3.172a3.167 3.167 0 00-3.16-3.173 3.167 3.167 0 00-3.161 3.173 3.166 3.166 0 003.161 3.172zm28.443-3.172a3.166 3.166 0 01-3.16 3.172 3.166 3.166 0 01-3.161-3.172 3.167 3.167 0 013.161-3.173 3.167 3.167 0 013.16 3.173zM245.708 513c1.745 0 3.16-1.42 3.16-3.172a3.167 3.167 0 00-3.16-3.173 3.167 3.167 0 00-3.161 3.173 3.166 3.166 0 003.161 3.172zm28.443-3.172a3.166 3.166 0 01-3.16 3.172 3.166 3.166 0 01-3.161-3.172 3.167 3.167 0 013.161-3.173 3.167 3.167 0 013.16 3.173zM296.274 513c1.745 0 3.16-1.42 3.16-3.172a3.167 3.167 0 00-3.16-3.173 3.167 3.167 0 00-3.161 3.173 3.166 3.166 0 003.161 3.172zm28.443-3.172a3.166 3.166 0 01-3.16 3.172 3.166 3.166 0 01-3.161-3.172 3.167 3.167 0 013.161-3.173 3.167 3.167 0 013.16 3.173zM346.84 513c1.745 0 3.16-1.42 3.16-3.172a3.167 3.167 0 00-3.16-3.173 3.167 3.167 0 00-3.161 3.173A3.166 3.166 0 00346.84 513z" opacity=".5" fill="#BAD9E7"/><defs><linearGradient id="paint0_linear" x1="400.06" y1="91.389" x2="204.788" y2="551.649" gradientUnits="userSpaceOnUse"><stop stop-color="#BAD9E7" stop-opacity=".44"/><stop offset="1" stop-color="#fff"/></linearGradient></defs></svg>