<svg width="725" height="513" fill="none" xmlns="http://www.w3.org/2000/svg"><g clip-path="url(#clip0)"><path fill-rule="evenodd" clip-rule="evenodd" d="M419.269 4.094s119.037 13.61 109.152 130.741c-7.169 85.061 44.289 116.162 59.473 163.81 16.433 51.39-17.349 186.281-154.017 141.146-136.668-45.135-143.039 32.004-215.254 65.607s-286.14-253.093-11.558-410.541c86.407-49.608 91.328-92.488 212.204-90.763z" fill="url(#paint0_linear)"/><path d="M3.302 199.621a3.306 3.306 0 003.302-3.311A3.306 3.306 0 003.302 193 3.306 3.306 0 000 196.31a3.306 3.306 0 003.302 3.311zm26.415 0a3.306 3.306 0 003.302-3.311 3.306 3.306 0 00-3.302-3.31 3.306 3.306 0 00-3.302 3.31 3.306 3.306 0 003.302 3.311zm29.717-3.311a3.306 3.306 0 01-3.302 3.311 3.306 3.306 0 01-3.302-3.311 3.306 3.306 0 013.302-3.31 3.306 3.306 0 013.302 3.31zm23.113 3.311a3.306 3.306 0 003.302-3.311 3.306 3.306 0 00-3.302-3.31 3.306 3.306 0 00-3.302 3.31 3.306 3.306 0 003.302 3.311zm29.717-3.311a3.306 3.306 0 01-3.302 3.311 3.307 3.307 0 01-3.302-3.311 3.306 3.306 0 013.302-3.31 3.306 3.306 0 013.302 3.31zm23.113 3.311a3.306 3.306 0 003.302-3.311 3.306 3.306 0 00-3.302-3.31 3.306 3.306 0 00-3.302 3.31 3.307 3.307 0 003.302 3.311zm29.717-3.311a3.306 3.306 0 01-3.302 3.311 3.306 3.306 0 01-3.301-3.311 3.306 3.306 0 013.301-3.31 3.306 3.306 0 013.302 3.31zm23.114 3.311a3.306 3.306 0 003.301-3.311 3.306 3.306 0 00-3.301-3.31 3.306 3.306 0 00-3.302 3.31 3.306 3.306 0 003.302 3.311zm29.717-3.311a3.307 3.307 0 01-3.302 3.311 3.306 3.306 0 01-3.302-3.311 3.306 3.306 0 013.302-3.31 3.306 3.306 0 013.302 3.31zm23.113 3.311a3.307 3.307 0 003.302-3.311 3.306 3.306 0 00-3.302-3.31 3.306 3.306 0 00-3.302 3.31 3.306 3.306 0 003.302 3.311zm29.717-3.311a3.307 3.307 0 01-3.302 3.311 3.306 3.306 0 01-3.302-3.311 3.306 3.306 0 013.302-3.31 3.306 3.306 0 013.302 3.31zm23.113 3.311a3.306 3.306 0 003.302-3.311 3.306 3.306 0 00-3.302-3.31 3.306 3.306 0 00-3.302 3.31 3.306 3.306 0 003.302 3.311zm29.717-3.311a3.306 3.306 0 01-3.302 3.311 3.306 3.306 0 01-3.302-3.311 3.306 3.306 0 013.302-3.31 3.306 3.306 0 013.302 3.31zm23.113 3.311A3.306 3.306 0 00350 196.31a3.306 3.306 0 00-3.302-3.31 3.306 3.306 0 00-3.302 3.31 3.307 3.307 0 003.302 3.311zM6.604 222.793a3.306 3.306 0 01-3.302 3.31A3.306 3.306 0 010 222.793a3.306 3.306 0 013.302-3.31 3.306 3.306 0 013.302 3.31zm23.113 3.31a3.306 3.306 0 003.302-3.31 3.306 3.306 0 00-3.302-3.31 3.306 3.306 0 00-3.302 3.31 3.306 3.306 0 003.302 3.31zm29.717-3.31a3.306 3.306 0 01-3.302 3.31 3.306 3.306 0 01-3.302-3.31 3.306 3.306 0 013.302-3.31 3.306 3.306 0 013.302 3.31zm23.113 3.31a3.306 3.306 0 003.302-3.31 3.306 3.306 0 00-3.302-3.31 3.306 3.306 0 00-3.302 3.31 3.306 3.306 0 003.302 3.31zm29.717-3.31a3.306 3.306 0 01-3.302 3.31 3.306 3.306 0 01-3.302-3.31 3.306 3.306 0 013.302-3.31 3.306 3.306 0 013.302 3.31zm23.113 3.31a3.306 3.306 0 003.302-3.31 3.306 3.306 0 00-3.302-3.31 3.306 3.306 0 00-3.302 3.31 3.306 3.306 0 003.302 3.31zm29.717-3.31a3.306 3.306 0 01-3.302 3.31 3.306 3.306 0 01-3.301-3.31 3.306 3.306 0 013.301-3.31 3.306 3.306 0 013.302 3.31zm23.114 3.31a3.306 3.306 0 003.301-3.31 3.306 3.306 0 00-3.301-3.31 3.306 3.306 0 00-3.302 3.31 3.306 3.306 0 003.302 3.31zm29.717-3.31a3.306 3.306 0 01-3.302 3.31 3.306 3.306 0 01-3.302-3.31 3.306 3.306 0 013.302-3.31 3.306 3.306 0 013.302 3.31zm23.113 3.31a3.306 3.306 0 003.302-3.31 3.306 3.306 0 00-3.302-3.31 3.306 3.306 0 00-3.302 3.31 3.306 3.306 0 003.302 3.31zm29.717-3.31a3.306 3.306 0 01-3.302 3.31 3.306 3.306 0 01-3.302-3.31 3.306 3.306 0 013.302-3.31 3.306 3.306 0 013.302 3.31zm23.113 3.31a3.306 3.306 0 003.302-3.31 3.306 3.306 0 00-3.302-3.31 3.306 3.306 0 00-3.302 3.31 3.306 3.306 0 003.302 3.31zm29.717-3.31a3.306 3.306 0 01-3.302 3.31 3.306 3.306 0 01-3.302-3.31 3.306 3.306 0 013.302-3.31 3.306 3.306 0 013.302 3.31zm23.113 3.31a3.306 3.306 0 003.302-3.31 3.306 3.306 0 00-3.302-3.31 3.306 3.306 0 00-3.302 3.31 3.306 3.306 0 003.302 3.31zM6.604 249.276a3.306 3.306 0 01-3.302 3.31A3.306 3.306 0 010 249.276a3.306 3.306 0 013.302-3.31 3.306 3.306 0 013.302 3.31zm23.113 3.31a3.306 3.306 0 003.302-3.31 3.306 3.306 0 00-3.302-3.31 3.306 3.306 0 00-3.302 3.31 3.306 3.306 0 003.302 3.31zm29.717-3.31a3.306 3.306 0 01-3.302 3.31 3.306 3.306 0 01-3.302-3.31 3.306 3.306 0 013.302-3.31 3.306 3.306 0 013.302 3.31zm23.113 3.31a3.306 3.306 0 003.302-3.31 3.306 3.306 0 00-3.302-3.31 3.306 3.306 0 00-3.302 3.31 3.306 3.306 0 003.302 3.31zm29.717-3.31a3.306 3.306 0 01-3.302 3.31 3.306 3.306 0 01-3.302-3.31 3.306 3.306 0 013.302-3.31 3.306 3.306 0 013.302 3.31zm23.113 3.31a3.306 3.306 0 003.302-3.31 3.306 3.306 0 00-3.302-3.31 3.306 3.306 0 00-3.302 3.31 3.306 3.306 0 003.302 3.31zm29.717-3.31a3.306 3.306 0 01-3.302 3.31 3.306 3.306 0 01-3.301-3.31 3.306 3.306 0 013.301-3.31 3.306 3.306 0 013.302 3.31zm23.114 3.31a3.306 3.306 0 003.301-3.31 3.306 3.306 0 00-3.301-3.31 3.306 3.306 0 00-3.302 3.31 3.306 3.306 0 003.302 3.31zm29.717-3.31a3.306 3.306 0 01-3.302 3.31 3.306 3.306 0 01-3.302-3.31 3.306 3.306 0 013.302-3.31 3.306 3.306 0 013.302 3.31zm23.113 3.31a3.306 3.306 0 003.302-3.31 3.306 3.306 0 00-3.302-3.31 3.306 3.306 0 00-3.302 3.31 3.306 3.306 0 003.302 3.31zm29.717-3.31a3.306 3.306 0 01-3.302 3.31 3.306 3.306 0 01-3.302-3.31 3.306 3.306 0 013.302-3.31 3.306 3.306 0 013.302 3.31zm23.113 3.31a3.306 3.306 0 003.302-3.31 3.306 3.306 0 00-3.302-3.31 3.306 3.306 0 00-3.302 3.31 3.306 3.306 0 003.302 3.31zm29.717-3.31a3.306 3.306 0 01-3.302 3.31 3.306 3.306 0 01-3.302-3.31 3.306 3.306 0 013.302-3.31 3.306 3.306 0 013.302 3.31zm23.113 3.31a3.306 3.306 0 003.302-3.31 3.306 3.306 0 00-3.302-3.31 3.306 3.306 0 00-3.302 3.31 3.306 3.306 0 003.302 3.31zM6.604 275.759a3.306 3.306 0 01-3.302 3.31A3.306 3.306 0 010 275.759a3.306 3.306 0 013.302-3.311 3.306 3.306 0 013.302 3.311zm23.113 3.31a3.306 3.306 0 003.302-3.31 3.306 3.306 0 00-3.302-3.311 3.306 3.306 0 00-3.302 3.311 3.306 3.306 0 003.302 3.31zm29.717-3.31a3.306 3.306 0 01-3.302 3.31 3.306 3.306 0 01-3.302-3.31 3.306 3.306 0 013.302-3.311 3.306 3.306 0 013.302 3.311zm23.113 3.31a3.306 3.306 0 003.302-3.31 3.306 3.306 0 00-3.302-3.311 3.306 3.306 0 00-3.302 3.311 3.306 3.306 0 003.302 3.31zm29.717-3.31a3.306 3.306 0 01-3.302 3.31 3.306 3.306 0 01-3.302-3.31 3.307 3.307 0 013.302-3.311 3.306 3.306 0 013.302 3.311zm23.113 3.31a3.306 3.306 0 003.302-3.31 3.306 3.306 0 00-3.302-3.311 3.307 3.307 0 00-3.302 3.311 3.306 3.306 0 003.302 3.31zm29.717-3.31a3.306 3.306 0 01-3.302 3.31 3.306 3.306 0 01-3.301-3.31 3.306 3.306 0 013.301-3.311 3.306 3.306 0 013.302 3.311zm23.114 3.31a3.306 3.306 0 003.301-3.31 3.306 3.306 0 00-3.301-3.311 3.306 3.306 0 00-3.302 3.311 3.306 3.306 0 003.302 3.31zm29.717-3.31a3.306 3.306 0 01-3.302 3.31 3.306 3.306 0 01-3.302-3.31 3.306 3.306 0 013.302-3.311 3.307 3.307 0 013.302 3.311zm23.113 3.31a3.306 3.306 0 003.302-3.31 3.307 3.307 0 00-3.302-3.311 3.306 3.306 0 00-3.302 3.311 3.306 3.306 0 003.302 3.31zm29.717-3.31a3.306 3.306 0 01-3.302 3.31 3.306 3.306 0 01-3.302-3.31 3.306 3.306 0 013.302-3.311 3.307 3.307 0 013.302 3.311zm23.113 3.31a3.306 3.306 0 003.302-3.31 3.306 3.306 0 00-3.302-3.311 3.306 3.306 0 00-3.302 3.311 3.306 3.306 0 003.302 3.31zm29.717-3.31a3.306 3.306 0 01-3.302 3.31 3.306 3.306 0 01-3.302-3.31 3.306 3.306 0 013.302-3.311 3.306 3.306 0 013.302 3.311zm23.113 3.31a3.306 3.306 0 003.302-3.31 3.306 3.306 0 00-3.302-3.311 3.307 3.307 0 00-3.302 3.311 3.306 3.306 0 003.302 3.31zM6.604 302.241a3.306 3.306 0 01-3.302 3.311A3.306 3.306 0 010 302.241a3.306 3.306 0 013.302-3.31 3.306 3.306 0 013.302 3.31zm23.113 3.311a3.306 3.306 0 003.302-3.311 3.306 3.306 0 00-3.302-3.31 3.306 3.306 0 00-3.302 3.31 3.306 3.306 0 003.302 3.311zm29.717-3.311a3.306 3.306 0 01-3.302 3.311 3.306 3.306 0 01-3.302-3.311 3.306 3.306 0 013.302-3.31 3.306 3.306 0 013.302 3.31zm23.113 3.311a3.306 3.306 0 003.302-3.311 3.306 3.306 0 00-3.302-3.31 3.306 3.306 0 00-3.302 3.31 3.306 3.306 0 003.302 3.311zm29.717-3.311a3.306 3.306 0 01-3.302 3.311 3.307 3.307 0 01-3.302-3.311 3.306 3.306 0 013.302-3.31 3.306 3.306 0 013.302 3.31zm23.113 3.311a3.306 3.306 0 003.302-3.311 3.306 3.306 0 00-3.302-3.31 3.306 3.306 0 00-3.302 3.31 3.307 3.307 0 003.302 3.311zm29.717-3.311a3.306 3.306 0 01-3.302 3.311 3.306 3.306 0 01-3.301-3.311 3.306 3.306 0 013.301-3.31 3.306 3.306 0 013.302 3.31zm23.114 3.311a3.306 3.306 0 003.301-3.311 3.306 3.306 0 00-3.301-3.31 3.306 3.306 0 00-3.302 3.31 3.306 3.306 0 003.302 3.311zm29.717-3.311a3.307 3.307 0 01-3.302 3.311 3.306 3.306 0 01-3.302-3.311 3.306 3.306 0 013.302-3.31 3.306 3.306 0 013.302 3.31zm23.113 3.311a3.307 3.307 0 003.302-3.311 3.306 3.306 0 00-3.302-3.31 3.306 3.306 0 00-3.302 3.31 3.306 3.306 0 003.302 3.311zm29.717-3.311a3.307 3.307 0 01-3.302 3.311 3.306 3.306 0 01-3.302-3.311 3.306 3.306 0 013.302-3.31 3.306 3.306 0 013.302 3.31zm23.113 3.311a3.306 3.306 0 003.302-3.311 3.306 3.306 0 00-3.302-3.31 3.306 3.306 0 00-3.302 3.31 3.306 3.306 0 003.302 3.311zm29.717-3.311a3.306 3.306 0 01-3.302 3.311 3.306 3.306 0 01-3.302-3.311 3.306 3.306 0 013.302-3.31 3.306 3.306 0 013.302 3.31zm23.113 3.311a3.306 3.306 0 003.302-3.311 3.306 3.306 0 00-3.302-3.31 3.306 3.306 0 00-3.302 3.31 3.307 3.307 0 003.302 3.311zM6.604 328.724a3.306 3.306 0 01-3.302 3.31A3.306 3.306 0 010 328.724a3.306 3.306 0 013.302-3.31 3.306 3.306 0 013.302 3.31zm23.113 3.31a3.306 3.306 0 003.302-3.31 3.306 3.306 0 00-3.302-3.31 3.306 3.306 0 00-3.302 3.31 3.306 3.306 0 003.302 3.31zm29.717-3.31a3.306 3.306 0 01-3.302 3.31 3.306 3.306 0 01-3.302-3.31 3.306 3.306 0 013.302-3.31 3.306 3.306 0 013.302 3.31zm23.113 3.31a3.306 3.306 0 003.302-3.31 3.306 3.306 0 00-3.302-3.31 3.306 3.306 0 00-3.302 3.31 3.306 3.306 0 003.302 3.31zm29.717-3.31a3.306 3.306 0 01-3.302 3.31 3.306 3.306 0 01-3.302-3.31 3.306 3.306 0 013.302-3.31 3.306 3.306 0 013.302 3.31zm23.113 3.31a3.306 3.306 0 003.302-3.31 3.306 3.306 0 00-3.302-3.31 3.306 3.306 0 00-3.302 3.31 3.306 3.306 0 003.302 3.31zm29.717-3.31a3.306 3.306 0 01-3.302 3.31 3.306 3.306 0 01-3.301-3.31 3.306 3.306 0 013.301-3.31 3.306 3.306 0 013.302 3.31zm23.114 3.31a3.306 3.306 0 003.301-3.31 3.306 3.306 0 00-3.301-3.31 3.306 3.306 0 00-3.302 3.31 3.306 3.306 0 003.302 3.31zm29.717-3.31a3.306 3.306 0 01-3.302 3.31 3.306 3.306 0 01-3.302-3.31 3.306 3.306 0 013.302-3.31 3.306 3.306 0 013.302 3.31zm23.113 3.31a3.306 3.306 0 003.302-3.31 3.306 3.306 0 00-3.302-3.31 3.306 3.306 0 00-3.302 3.31 3.306 3.306 0 003.302 3.31zm29.717-3.31a3.306 3.306 0 01-3.302 3.31 3.306 3.306 0 01-3.302-3.31 3.306 3.306 0 013.302-3.31 3.306 3.306 0 013.302 3.31zm23.113 3.31a3.306 3.306 0 003.302-3.31 3.306 3.306 0 00-3.302-3.31 3.306 3.306 0 00-3.302 3.31 3.306 3.306 0 003.302 3.31zm29.717-3.31a3.306 3.306 0 01-3.302 3.31 3.306 3.306 0 01-3.302-3.31 3.306 3.306 0 013.302-3.31 3.306 3.306 0 013.302 3.31zm23.113 3.31a3.306 3.306 0 003.302-3.31 3.306 3.306 0 00-3.302-3.31 3.306 3.306 0 00-3.302 3.31 3.306 3.306 0 003.302 3.31zM6.604 355.207a3.306 3.306 0 01-3.302 3.31A3.306 3.306 0 010 355.207a3.306 3.306 0 013.302-3.31 3.306 3.306 0 013.302 3.31zm23.113 3.31a3.306 3.306 0 003.302-3.31 3.306 3.306 0 00-3.302-3.31 3.306 3.306 0 00-3.302 3.31 3.306 3.306 0 003.302 3.31zm29.717-3.31a3.306 3.306 0 01-3.302 3.31 3.306 3.306 0 01-3.302-3.31 3.306 3.306 0 013.302-3.31 3.306 3.306 0 013.302 3.31zm23.113 3.31a3.306 3.306 0 003.302-3.31 3.306 3.306 0 00-3.302-3.31 3.306 3.306 0 00-3.302 3.31 3.306 3.306 0 003.302 3.31zm29.717-3.31a3.306 3.306 0 01-3.302 3.31 3.306 3.306 0 01-3.302-3.31 3.306 3.306 0 013.302-3.31 3.306 3.306 0 013.302 3.31zm23.113 3.31a3.306 3.306 0 003.302-3.31 3.306 3.306 0 00-3.302-3.31 3.306 3.306 0 00-3.302 3.31 3.306 3.306 0 003.302 3.31zm29.717-3.31a3.306 3.306 0 01-3.302 3.31 3.306 3.306 0 01-3.301-3.31 3.306 3.306 0 013.301-3.31 3.306 3.306 0 013.302 3.31zm23.114 3.31a3.306 3.306 0 003.301-3.31 3.306 3.306 0 00-3.301-3.31 3.306 3.306 0 00-3.302 3.31 3.306 3.306 0 003.302 3.31zm29.717-3.31a3.306 3.306 0 01-3.302 3.31 3.306 3.306 0 01-3.302-3.31 3.306 3.306 0 013.302-3.31 3.306 3.306 0 013.302 3.31zm23.113 3.31a3.306 3.306 0 003.302-3.31 3.306 3.306 0 00-3.302-3.31 3.306 3.306 0 00-3.302 3.31 3.306 3.306 0 003.302 3.31zm29.717-3.31a3.306 3.306 0 01-3.302 3.31 3.306 3.306 0 01-3.302-3.31 3.306 3.306 0 013.302-3.31 3.306 3.306 0 013.302 3.31zm23.113 3.31a3.306 3.306 0 003.302-3.31 3.306 3.306 0 00-3.302-3.31 3.306 3.306 0 00-3.302 3.31 3.306 3.306 0 003.302 3.31zm29.717-3.31a3.306 3.306 0 01-3.302 3.31 3.306 3.306 0 01-3.302-3.31 3.306 3.306 0 013.302-3.31 3.306 3.306 0 013.302 3.31zm23.113 3.31a3.306 3.306 0 003.302-3.31 3.306 3.306 0 00-3.302-3.31 3.306 3.306 0 00-3.302 3.31 3.306 3.306 0 003.302 3.31zM6.604 381.69A3.306 3.306 0 013.302 385 3.306 3.306 0 010 381.69a3.306 3.306 0 013.302-3.311 3.306 3.306 0 013.302 3.311zM29.717 385a3.306 3.306 0 003.302-3.31 3.306 3.306 0 00-3.302-3.311 3.306 3.306 0 00-3.302 3.311 3.306 3.306 0 003.302 3.31zm29.717-3.31a3.306 3.306 0 01-3.302 3.31 3.306 3.306 0 01-3.302-3.31 3.306 3.306 0 013.302-3.311 3.306 3.306 0 013.302 3.311zM82.547 385a3.306 3.306 0 003.302-3.31 3.306 3.306 0 00-3.302-3.311 3.306 3.306 0 00-3.302 3.311 3.306 3.306 0 003.302 3.31zm29.717-3.31a3.306 3.306 0 01-3.302 3.31 3.306 3.306 0 01-3.302-3.31 3.307 3.307 0 013.302-3.311 3.306 3.306 0 013.302 3.311zm23.113 3.31a3.306 3.306 0 003.302-3.31 3.306 3.306 0 00-3.302-3.311 3.307 3.307 0 00-3.302 3.311 3.306 3.306 0 003.302 3.31zm29.717-3.31a3.306 3.306 0 01-3.302 3.31 3.306 3.306 0 01-3.301-3.31 3.306 3.306 0 013.301-3.311 3.306 3.306 0 013.302 3.311zm23.114 3.31a3.306 3.306 0 003.301-3.31 3.306 3.306 0 00-3.301-3.311 3.306 3.306 0 00-3.302 3.311 3.306 3.306 0 003.302 3.31zm29.717-3.31a3.306 3.306 0 01-3.302 3.31 3.306 3.306 0 01-3.302-3.31 3.306 3.306 0 013.302-3.311 3.307 3.307 0 013.302 3.311zm23.113 3.31a3.306 3.306 0 003.302-3.31 3.307 3.307 0 00-3.302-3.311 3.306 3.306 0 00-3.302 3.311 3.306 3.306 0 003.302 3.31zm29.717-3.31a3.306 3.306 0 01-3.302 3.31 3.306 3.306 0 01-3.302-3.31 3.306 3.306 0 013.302-3.311 3.307 3.307 0 013.302 3.311zm23.113 3.31a3.306 3.306 0 003.302-3.31 3.306 3.306 0 00-3.302-3.311 3.306 3.306 0 00-3.302 3.311 3.306 3.306 0 003.302 3.31zm29.717-3.31a3.306 3.306 0 01-3.302 3.31 3.306 3.306 0 01-3.302-3.31 3.306 3.306 0 013.302-3.311 3.306 3.306 0 013.302 3.311zm23.113 3.31a3.306 3.306 0 003.302-3.31 3.306 3.306 0 00-3.302-3.311 3.307 3.307 0 00-3.302 3.311 3.306 3.306 0 003.302 3.31z" opacity=".5" fill="#BAD9E7"/></g><defs><linearGradient id="paint0_linear" x1="455.378" y1="14.183" x2="238.223" y2="526.022" gradientUnits="userSpaceOnUse"><stop stop-color="#BAD9E7" stop-opacity=".44"/><stop offset="1" stop-color="#fff"/></linearGradient><clipPath id="clip0"><path fill="#fff" d="M0 0h725v513H0z"/></clipPath></defs></svg>