<svg width="456" height="364" fill="none" xmlns="http://www.w3.org/2000/svg"><path fill-rule="evenodd" clip-rule="evenodd" d="M60.39 208.15s-23.701-80.296 54.24-105.907c56.598-18.604 62.552-60.198 89.024-82.972 28.535-24.598 124.398-39.683 132.652 60.56 8.254 100.243 59.546 83.287 100.816 120.574 41.269 37.287-84.603 253.164-260.588 119.49-55.419-42.048-84.308-33.51-116.144-111.745z" fill="url(#paint0_linear)"/><path d="M4.302 8.62a4.306 4.306 0 004.302-4.31C8.604 1.93 6.678 0 4.302 0A4.306 4.306 0 000 4.31c0 2.38 1.926 4.31 4.302 4.31zm34.415 0a4.306 4.306 0 004.302-4.31c0-2.38-1.926-4.31-4.302-4.31a4.306 4.306 0 00-4.302 4.31c0 2.38 1.926 4.31 4.302 4.31zm38.717-4.31c0 2.38-1.926 4.31-4.302 4.31a4.306 4.306 0 01-4.302-4.31c0-2.38 1.926-4.31 4.302-4.31a4.306 4.306 0 014.302 4.31zm30.113 4.31a4.306 4.306 0 004.302-4.31c0-2.38-1.926-4.31-4.302-4.31a4.306 4.306 0 00-4.302 4.31c0 2.38 1.926 4.31 4.302 4.31zm38.717-4.31c0 2.38-1.926 4.31-4.302 4.31a4.306 4.306 0 01-4.302-4.31c0-2.38 1.926-4.31 4.302-4.31a4.306 4.306 0 014.302 4.31zm30.113 4.31a4.306 4.306 0 004.302-4.31c0-2.38-1.926-4.31-4.302-4.31a4.306 4.306 0 00-4.302 4.31c0 2.38 1.926 4.31 4.302 4.31zm38.717-4.31c0 2.38-1.926 4.31-4.302 4.31a4.306 4.306 0 01-4.301-4.31c0-2.38 1.926-4.31 4.301-4.31a4.306 4.306 0 014.302 4.31zm30.114 4.31a4.306 4.306 0 004.301-4.31c0-2.38-1.926-4.31-4.301-4.31a4.306 4.306 0 00-4.302 4.31c0 2.38 1.926 4.31 4.302 4.31zm38.717-4.31c0 2.38-1.926 4.31-4.302 4.31a4.306 4.306 0 01-4.302-4.31c0-2.38 1.926-4.31 4.302-4.31a4.306 4.306 0 014.302 4.31zm30.113 4.31a4.306 4.306 0 004.302-4.31c0-2.38-1.926-4.31-4.302-4.31a4.306 4.306 0 00-4.302 4.31c0 2.38 1.926 4.31 4.302 4.31zm38.717-4.31c0 2.38-1.926 4.31-4.302 4.31a4.306 4.306 0 01-4.302-4.31c0-2.38 1.926-4.31 4.302-4.31a4.306 4.306 0 014.302 4.31zm30.113 4.31a4.306 4.306 0 004.302-4.31c0-2.38-1.926-4.31-4.302-4.31a4.306 4.306 0 00-4.302 4.31c0 2.38 1.926 4.31 4.302 4.31zm38.717-4.31c0 2.38-1.926 4.31-4.302 4.31a4.306 4.306 0 01-4.302-4.31c0-2.38 1.926-4.31 4.302-4.31a4.306 4.306 0 014.302 4.31zm30.113 4.31A4.306 4.306 0 00456 4.31c0-2.38-1.926-4.31-4.302-4.31a4.306 4.306 0 00-4.302 4.31c0 2.38 1.926 4.31 4.302 4.31zM8.604 38.793c0 2.38-1.926 4.31-4.302 4.31A4.306 4.306 0 010 38.793c0-2.38 1.926-4.31 4.302-4.31a4.306 4.306 0 014.302 4.31zm30.113 4.31a4.306 4.306 0 004.302-4.31c0-2.38-1.926-4.31-4.302-4.31a4.306 4.306 0 00-4.302 4.31c0 2.38 1.926 4.31 4.302 4.31zm38.717-4.31c0 2.38-1.926 4.31-4.302 4.31a4.306 4.306 0 01-4.302-4.31c0-2.38 1.926-4.31 4.302-4.31a4.306 4.306 0 014.302 4.31zm30.113 4.31a4.306 4.306 0 004.302-4.31c0-2.38-1.926-4.31-4.302-4.31a4.306 4.306 0 00-4.302 4.31c0 2.38 1.926 4.31 4.302 4.31zm38.717-4.31c0 2.38-1.926 4.31-4.302 4.31a4.306 4.306 0 01-4.302-4.31c0-2.38 1.926-4.31 4.302-4.31a4.306 4.306 0 014.302 4.31zm30.113 4.31a4.306 4.306 0 004.302-4.31c0-2.38-1.926-4.31-4.302-4.31a4.306 4.306 0 00-4.302 4.31c0 2.38 1.926 4.31 4.302 4.31zm38.717-4.31c0 2.38-1.926 4.31-4.302 4.31a4.306 4.306 0 01-4.301-4.31c0-2.38 1.926-4.31 4.301-4.31a4.306 4.306 0 014.302 4.31zm30.114 4.31a4.306 4.306 0 004.301-4.31c0-2.38-1.926-4.31-4.301-4.31a4.306 4.306 0 00-4.302 4.31c0 2.38 1.926 4.31 4.302 4.31zm38.717-4.31c0 2.38-1.926 4.31-4.302 4.31a4.306 4.306 0 01-4.302-4.31c0-2.38 1.926-4.31 4.302-4.31a4.306 4.306 0 014.302 4.31zm30.113 4.31a4.306 4.306 0 004.302-4.31c0-2.38-1.926-4.31-4.302-4.31a4.306 4.306 0 00-4.302 4.31c0 2.38 1.926 4.31 4.302 4.31zm38.717-4.31c0 2.38-1.926 4.31-4.302 4.31a4.306 4.306 0 01-4.302-4.31c0-2.38 1.926-4.31 4.302-4.31a4.306 4.306 0 014.302 4.31zm30.113 4.31a4.306 4.306 0 004.302-4.31c0-2.38-1.926-4.31-4.302-4.31a4.306 4.306 0 00-4.302 4.31c0 2.38 1.926 4.31 4.302 4.31zm38.717-4.31c0 2.38-1.926 4.31-4.302 4.31a4.306 4.306 0 01-4.302-4.31c0-2.38 1.926-4.31 4.302-4.31a4.306 4.306 0 014.302 4.31zm30.113 4.31a4.306 4.306 0 004.302-4.31c0-2.38-1.926-4.31-4.302-4.31a4.306 4.306 0 00-4.302 4.31c0 2.38 1.926 4.31 4.302 4.31zM8.604 73.276c0 2.38-1.926 4.31-4.302 4.31A4.306 4.306 0 010 73.276c0-2.38 1.926-4.31 4.302-4.31a4.306 4.306 0 014.302 4.31zm30.113 4.31a4.306 4.306 0 004.302-4.31c0-2.38-1.926-4.31-4.302-4.31a4.306 4.306 0 00-4.302 4.31c0 2.38 1.926 4.31 4.302 4.31zm38.717-4.31c0 2.38-1.926 4.31-4.302 4.31a4.306 4.306 0 01-4.302-4.31c0-2.38 1.926-4.31 4.302-4.31a4.306 4.306 0 014.302 4.31zm30.113 4.31a4.306 4.306 0 004.302-4.31c0-2.38-1.926-4.31-4.302-4.31a4.306 4.306 0 00-4.302 4.31c0 2.38 1.926 4.31 4.302 4.31zm38.717-4.31c0 2.38-1.926 4.31-4.302 4.31a4.306 4.306 0 01-4.302-4.31c0-2.38 1.926-4.31 4.302-4.31a4.306 4.306 0 014.302 4.31zm30.113 4.31a4.306 4.306 0 004.302-4.31c0-2.38-1.926-4.31-4.302-4.31a4.306 4.306 0 00-4.302 4.31c0 2.38 1.926 4.31 4.302 4.31zm38.717-4.31c0 2.38-1.926 4.31-4.302 4.31a4.306 4.306 0 01-4.301-4.31c0-2.38 1.926-4.31 4.301-4.31a4.306 4.306 0 014.302 4.31zm30.114 4.31a4.306 4.306 0 004.301-4.31c0-2.38-1.926-4.31-4.301-4.31a4.306 4.306 0 00-4.302 4.31c0 2.38 1.926 4.31 4.302 4.31zm38.717-4.31c0 2.38-1.926 4.31-4.302 4.31a4.306 4.306 0 01-4.302-4.31c0-2.38 1.926-4.31 4.302-4.31a4.306 4.306 0 014.302 4.31zm30.113 4.31a4.306 4.306 0 004.302-4.31c0-2.38-1.926-4.31-4.302-4.31a4.306 4.306 0 00-4.302 4.31c0 2.38 1.926 4.31 4.302 4.31zm38.717-4.31c0 2.38-1.926 4.31-4.302 4.31a4.306 4.306 0 01-4.302-4.31c0-2.38 1.926-4.31 4.302-4.31a4.306 4.306 0 014.302 4.31zm30.113 4.31a4.306 4.306 0 004.302-4.31c0-2.38-1.926-4.31-4.302-4.31a4.306 4.306 0 00-4.302 4.31c0 2.38 1.926 4.31 4.302 4.31zm38.717-4.31c0 2.38-1.926 4.31-4.302 4.31a4.306 4.306 0 01-4.302-4.31c0-2.38 1.926-4.31 4.302-4.31a4.306 4.306 0 014.302 4.31zm30.113 4.31a4.306 4.306 0 004.302-4.31c0-2.38-1.926-4.31-4.302-4.31a4.306 4.306 0 00-4.302 4.31c0 2.38 1.926 4.31 4.302 4.31zM8.604 107.759c0 2.38-1.926 4.31-4.302 4.31A4.306 4.306 0 010 107.759a4.306 4.306 0 014.302-4.311 4.306 4.306 0 014.302 4.311zm30.113 4.31a4.306 4.306 0 004.302-4.31 4.306 4.306 0 00-4.302-4.311 4.306 4.306 0 00-4.302 4.311c0 2.38 1.926 4.31 4.302 4.31zm38.717-4.31c0 2.38-1.926 4.31-4.302 4.31a4.306 4.306 0 01-4.302-4.31 4.306 4.306 0 014.302-4.311 4.306 4.306 0 014.302 4.311zm30.113 4.31a4.306 4.306 0 004.302-4.31 4.306 4.306 0 00-4.302-4.311 4.306 4.306 0 00-4.302 4.311c0 2.38 1.926 4.31 4.302 4.31zm38.717-4.31c0 2.38-1.926 4.31-4.302 4.31a4.306 4.306 0 01-4.302-4.31 4.306 4.306 0 014.302-4.311 4.306 4.306 0 014.302 4.311zm30.113 4.31a4.306 4.306 0 004.302-4.31 4.306 4.306 0 00-4.302-4.311 4.306 4.306 0 00-4.302 4.311c0 2.38 1.926 4.31 4.302 4.31zm38.717-4.31c0 2.38-1.926 4.31-4.302 4.31a4.306 4.306 0 01-4.301-4.31 4.306 4.306 0 014.301-4.311 4.306 4.306 0 014.302 4.311zm30.114 4.31a4.306 4.306 0 004.301-4.31 4.306 4.306 0 00-4.301-4.311 4.306 4.306 0 00-4.302 4.311c0 2.38 1.926 4.31 4.302 4.31zm38.717-4.31c0 2.38-1.926 4.31-4.302 4.31a4.306 4.306 0 01-4.302-4.31 4.306 4.306 0 014.302-4.311 4.306 4.306 0 014.302 4.311zm30.113 4.31a4.306 4.306 0 004.302-4.31 4.306 4.306 0 00-4.302-4.311 4.306 4.306 0 00-4.302 4.311c0 2.38 1.926 4.31 4.302 4.31zm38.717-4.31c0 2.38-1.926 4.31-4.302 4.31a4.306 4.306 0 01-4.302-4.31 4.306 4.306 0 014.302-4.311 4.306 4.306 0 014.302 4.311zm30.113 4.31a4.306 4.306 0 004.302-4.31 4.306 4.306 0 00-4.302-4.311 4.306 4.306 0 00-4.302 4.311c0 2.38 1.926 4.31 4.302 4.31zm38.717-4.31c0 2.38-1.926 4.31-4.302 4.31a4.306 4.306 0 01-4.302-4.31 4.306 4.306 0 014.302-4.311 4.306 4.306 0 014.302 4.311zm30.113 4.31a4.306 4.306 0 004.302-4.31 4.306 4.306 0 00-4.302-4.311 4.306 4.306 0 00-4.302 4.311c0 2.38 1.926 4.31 4.302 4.31zM8.604 142.241a4.306 4.306 0 01-4.302 4.311A4.306 4.306 0 010 142.241c0-2.38 1.926-4.31 4.302-4.31a4.306 4.306 0 014.302 4.31zm30.113 4.311a4.306 4.306 0 004.302-4.311c0-2.38-1.926-4.31-4.302-4.31a4.306 4.306 0 00-4.302 4.31 4.306 4.306 0 004.302 4.311zm38.717-4.311a4.306 4.306 0 01-4.302 4.311 4.306 4.306 0 01-4.302-4.311c0-2.38 1.926-4.31 4.302-4.31a4.306 4.306 0 014.302 4.31zm30.113 4.311a4.306 4.306 0 004.302-4.311c0-2.38-1.926-4.31-4.302-4.31a4.306 4.306 0 00-4.302 4.31 4.306 4.306 0 004.302 4.311zm38.717-4.311a4.306 4.306 0 01-4.302 4.311 4.306 4.306 0 01-4.302-4.311c0-2.38 1.926-4.31 4.302-4.31a4.306 4.306 0 014.302 4.31zm30.113 4.311a4.306 4.306 0 004.302-4.311c0-2.38-1.926-4.31-4.302-4.31a4.306 4.306 0 00-4.302 4.31 4.306 4.306 0 004.302 4.311zm38.717-4.311a4.306 4.306 0 01-4.302 4.311 4.306 4.306 0 01-4.301-4.311c0-2.38 1.926-4.31 4.301-4.31a4.306 4.306 0 014.302 4.31zm30.114 4.311a4.306 4.306 0 004.301-4.311c0-2.38-1.926-4.31-4.301-4.31a4.306 4.306 0 00-4.302 4.31 4.306 4.306 0 004.302 4.311zm38.717-4.311a4.306 4.306 0 01-4.302 4.311 4.306 4.306 0 01-4.302-4.311c0-2.38 1.926-4.31 4.302-4.31a4.306 4.306 0 014.302 4.31zm30.113 4.311a4.306 4.306 0 004.302-4.311c0-2.38-1.926-4.31-4.302-4.31a4.306 4.306 0 00-4.302 4.31 4.306 4.306 0 004.302 4.311zm38.717-4.311a4.306 4.306 0 01-4.302 4.311 4.306 4.306 0 01-4.302-4.311c0-2.38 1.926-4.31 4.302-4.31a4.306 4.306 0 014.302 4.31zm30.113 4.311a4.306 4.306 0 004.302-4.311c0-2.38-1.926-4.31-4.302-4.31a4.306 4.306 0 00-4.302 4.31 4.306 4.306 0 004.302 4.311zm38.717-4.311a4.306 4.306 0 01-4.302 4.311 4.306 4.306 0 01-4.302-4.311c0-2.38 1.926-4.31 4.302-4.31a4.306 4.306 0 014.302 4.31zm30.113 4.311a4.306 4.306 0 004.302-4.311c0-2.38-1.926-4.31-4.302-4.31a4.306 4.306 0 00-4.302 4.31 4.306 4.306 0 004.302 4.311zM8.604 176.724a4.305 4.305 0 01-4.302 4.31A4.306 4.306 0 010 176.724c0-2.38 1.926-4.31 4.302-4.31a4.306 4.306 0 014.302 4.31zm30.113 4.31a4.306 4.306 0 004.302-4.31c0-2.38-1.926-4.31-4.302-4.31a4.306 4.306 0 00-4.302 4.31 4.306 4.306 0 004.302 4.31zm38.717-4.31a4.306 4.306 0 01-4.302 4.31 4.306 4.306 0 01-4.302-4.31c0-2.38 1.926-4.31 4.302-4.31a4.306 4.306 0 014.302 4.31zm30.113 4.31a4.306 4.306 0 004.302-4.31c0-2.38-1.926-4.31-4.302-4.31a4.306 4.306 0 00-4.302 4.31 4.306 4.306 0 004.302 4.31zm38.717-4.31a4.306 4.306 0 01-4.302 4.31 4.306 4.306 0 01-4.302-4.31c0-2.38 1.926-4.31 4.302-4.31a4.306 4.306 0 014.302 4.31zm30.113 4.31a4.306 4.306 0 004.302-4.31c0-2.38-1.926-4.31-4.302-4.31a4.306 4.306 0 00-4.302 4.31 4.306 4.306 0 004.302 4.31zm38.717-4.31a4.306 4.306 0 01-4.302 4.31 4.305 4.305 0 01-4.301-4.31c0-2.38 1.926-4.31 4.301-4.31a4.306 4.306 0 014.302 4.31zm30.114 4.31a4.305 4.305 0 004.301-4.31c0-2.38-1.926-4.31-4.301-4.31a4.306 4.306 0 00-4.302 4.31 4.306 4.306 0 004.302 4.31zm38.717-4.31a4.306 4.306 0 01-4.302 4.31 4.306 4.306 0 01-4.302-4.31c0-2.38 1.926-4.31 4.302-4.31a4.306 4.306 0 014.302 4.31zm30.113 4.31a4.306 4.306 0 004.302-4.31c0-2.38-1.926-4.31-4.302-4.31a4.306 4.306 0 00-4.302 4.31 4.306 4.306 0 004.302 4.31zm38.717-4.31a4.306 4.306 0 01-4.302 4.31 4.306 4.306 0 01-4.302-4.31c0-2.38 1.926-4.31 4.302-4.31a4.306 4.306 0 014.302 4.31zm30.113 4.31a4.306 4.306 0 004.302-4.31c0-2.38-1.926-4.31-4.302-4.31a4.306 4.306 0 00-4.302 4.31 4.306 4.306 0 004.302 4.31zm38.717-4.31a4.306 4.306 0 01-4.302 4.31 4.306 4.306 0 01-4.302-4.31c0-2.38 1.926-4.31 4.302-4.31a4.306 4.306 0 014.302 4.31zm30.113 4.31a4.306 4.306 0 004.302-4.31c0-2.38-1.926-4.31-4.302-4.31a4.306 4.306 0 00-4.302 4.31 4.306 4.306 0 004.302 4.31zM8.604 211.207c0 2.38-1.926 4.31-4.302 4.31A4.306 4.306 0 010 211.207a4.306 4.306 0 014.302-4.31 4.305 4.305 0 014.302 4.31zm30.113 4.31a4.306 4.306 0 004.302-4.31 4.306 4.306 0 00-4.302-4.31 4.306 4.306 0 00-4.302 4.31c0 2.38 1.926 4.31 4.302 4.31zm38.717-4.31c0 2.38-1.926 4.31-4.302 4.31a4.306 4.306 0 01-4.302-4.31 4.306 4.306 0 014.302-4.31 4.306 4.306 0 014.302 4.31zm30.113 4.31a4.306 4.306 0 004.302-4.31 4.306 4.306 0 00-4.302-4.31 4.306 4.306 0 00-4.302 4.31c0 2.38 1.926 4.31 4.302 4.31zm38.717-4.31c0 2.38-1.926 4.31-4.302 4.31a4.306 4.306 0 01-4.302-4.31 4.306 4.306 0 014.302-4.31 4.306 4.306 0 014.302 4.31zm30.113 4.31a4.306 4.306 0 004.302-4.31 4.306 4.306 0 00-4.302-4.31 4.306 4.306 0 00-4.302 4.31c0 2.38 1.926 4.31 4.302 4.31zm38.717-4.31c0 2.38-1.926 4.31-4.302 4.31a4.306 4.306 0 01-4.301-4.31 4.305 4.305 0 014.301-4.31 4.306 4.306 0 014.302 4.31zm30.114 4.31a4.306 4.306 0 004.301-4.31 4.305 4.305 0 00-4.301-4.31 4.306 4.306 0 00-4.302 4.31c0 2.38 1.926 4.31 4.302 4.31zm38.717-4.31c0 2.38-1.926 4.31-4.302 4.31a4.306 4.306 0 01-4.302-4.31 4.306 4.306 0 014.302-4.31 4.306 4.306 0 014.302 4.31zm30.113 4.31a4.306 4.306 0 004.302-4.31 4.306 4.306 0 00-4.302-4.31 4.306 4.306 0 00-4.302 4.31c0 2.38 1.926 4.31 4.302 4.31zm38.717-4.31c0 2.38-1.926 4.31-4.302 4.31a4.306 4.306 0 01-4.302-4.31 4.306 4.306 0 014.302-4.31 4.306 4.306 0 014.302 4.31zm30.113 4.31a4.306 4.306 0 004.302-4.31 4.306 4.306 0 00-4.302-4.31 4.306 4.306 0 00-4.302 4.31c0 2.38 1.926 4.31 4.302 4.31zm38.717-4.31c0 2.38-1.926 4.31-4.302 4.31a4.306 4.306 0 01-4.302-4.31 4.306 4.306 0 014.302-4.31 4.306 4.306 0 014.302 4.31zm30.113 4.31a4.306 4.306 0 004.302-4.31 4.306 4.306 0 00-4.302-4.31 4.306 4.306 0 00-4.302 4.31c0 2.38 1.926 4.31 4.302 4.31zM8.604 245.69c0 2.38-1.926 4.31-4.302 4.31A4.306 4.306 0 010 245.69a4.306 4.306 0 014.302-4.311 4.306 4.306 0 014.302 4.311zM38.717 250a4.306 4.306 0 004.302-4.31 4.306 4.306 0 00-4.302-4.311 4.306 4.306 0 00-4.302 4.311c0 2.38 1.926 4.31 4.302 4.31zm38.717-4.31c0 2.38-1.926 4.31-4.302 4.31a4.306 4.306 0 01-4.302-4.31 4.306 4.306 0 014.302-4.311 4.306 4.306 0 014.302 4.311zm30.113 4.31a4.306 4.306 0 004.302-4.31 4.306 4.306 0 00-4.302-4.311 4.306 4.306 0 00-4.302 4.311c0 2.38 1.926 4.31 4.302 4.31zm38.717-4.31c0 2.38-1.926 4.31-4.302 4.31a4.306 4.306 0 01-4.302-4.31 4.306 4.306 0 014.302-4.311 4.306 4.306 0 014.302 4.311zm30.113 4.31a4.306 4.306 0 004.302-4.31 4.306 4.306 0 00-4.302-4.311 4.306 4.306 0 00-4.302 4.311c0 2.38 1.926 4.31 4.302 4.31zm38.717-4.31c0 2.38-1.926 4.31-4.302 4.31a4.306 4.306 0 01-4.301-4.31 4.306 4.306 0 014.301-4.311 4.306 4.306 0 014.302 4.311zm30.114 4.31a4.306 4.306 0 004.301-4.31 4.306 4.306 0 00-4.301-4.311 4.306 4.306 0 00-4.302 4.311c0 2.38 1.926 4.31 4.302 4.31zm38.717-4.31c0 2.38-1.926 4.31-4.302 4.31a4.306 4.306 0 01-4.302-4.31 4.306 4.306 0 014.302-4.311 4.306 4.306 0 014.302 4.311zm30.113 4.31a4.306 4.306 0 004.302-4.31 4.306 4.306 0 00-4.302-4.311 4.306 4.306 0 00-4.302 4.311c0 2.38 1.926 4.31 4.302 4.31zm38.717-4.31c0 2.38-1.926 4.31-4.302 4.31a4.306 4.306 0 01-4.302-4.31 4.306 4.306 0 014.302-4.311 4.306 4.306 0 014.302 4.311zm30.113 4.31a4.306 4.306 0 004.302-4.31 4.306 4.306 0 00-4.302-4.311 4.306 4.306 0 00-4.302 4.311c0 2.38 1.926 4.31 4.302 4.31zm38.717-4.31c0 2.38-1.926 4.31-4.302 4.31a4.306 4.306 0 01-4.302-4.31 4.306 4.306 0 014.302-4.311 4.306 4.306 0 014.302 4.311zm30.113 4.31a4.306 4.306 0 004.302-4.31 4.306 4.306 0 00-4.302-4.311 4.306 4.306 0 00-4.302 4.311c0 2.38 1.926 4.31 4.302 4.31z" opacity=".5" fill="#BAD9E7"/><defs><linearGradient id="paint0_linear" x1="57.029" y1="182.166" x2="445.029" y2="182.166" gradientUnits="userSpaceOnUse"><stop stop-color="#BAD9E7" stop-opacity=".44"/><stop offset="1" stop-color="#fff"/></linearGradient></defs></svg>