<svg width="541" height="468" fill="none" xmlns="http://www.w3.org/2000/svg"><path fill-rule="evenodd" clip-rule="evenodd" d="M392.554.045s102.412 11.75 93.938 112.61c-6.145 73.244 38.133 100.038 51.208 141.072 14.15 44.256-14.878 160.403-132.466 121.501-117.588-38.901-123.049 27.523-185.167 56.439-62.119 28.917-246.233-218.013-10.05-353.52C284.341 35.45 288.564-1.474 392.554.044z" fill="url(#paint0_linear)"/><path d="M2.547 325.103a2.549 2.549 0 002.547-2.551A2.55 2.55 0 002.547 320 2.55 2.55 0 000 322.552a2.549 2.549 0 002.547 2.551zm20.377 0a2.549 2.549 0 002.548-2.551A2.55 2.55 0 0022.924 320a2.55 2.55 0 00-2.547 2.552 2.549 2.549 0 002.547 2.551zm22.926-2.551a2.549 2.549 0 01-2.548 2.551 2.549 2.549 0 01-2.547-2.551A2.55 2.55 0 0143.302 320a2.55 2.55 0 012.547 2.552zm17.83 2.551a2.549 2.549 0 002.546-2.551A2.55 2.55 0 0063.68 320a2.55 2.55 0 00-2.547 2.552 2.549 2.549 0 002.547 2.551zm22.924-2.551a2.549 2.549 0 01-2.547 2.551 2.549 2.549 0 01-2.548-2.551A2.55 2.55 0 0184.057 320a2.55 2.55 0 012.547 2.552zm17.83 2.551a2.549 2.549 0 002.547-2.551c0-1.41-1.14-2.552-2.547-2.552a2.549 2.549 0 00-2.547 2.552 2.549 2.549 0 002.547 2.551zm22.924-2.551a2.549 2.549 0 01-2.547 2.551 2.55 2.55 0 01-2.547-2.551 2.55 2.55 0 012.547-2.552 2.549 2.549 0 012.547 2.552zm17.831 2.551a2.55 2.55 0 002.547-2.551 2.55 2.55 0 00-2.547-2.552 2.549 2.549 0 00-2.547 2.552 2.549 2.549 0 002.547 2.551zm22.924-2.551a2.549 2.549 0 01-2.547 2.551 2.549 2.549 0 01-2.547-2.551c0-1.41 1.14-2.552 2.547-2.552a2.549 2.549 0 012.547 2.552zm17.83 2.551a2.55 2.55 0 002.548-2.551 2.55 2.55 0 00-2.548-2.552 2.55 2.55 0 00-2.547 2.552 2.55 2.55 0 002.547 2.551zm22.925-2.551a2.549 2.549 0 01-2.547 2.551 2.549 2.549 0 01-2.547-2.551c0-1.41 1.14-2.552 2.547-2.552a2.549 2.549 0 012.547 2.552zm17.83 2.551a2.549 2.549 0 002.547-2.551c0-1.41-1.14-2.552-2.547-2.552a2.549 2.549 0 00-2.547 2.552 2.549 2.549 0 002.547 2.551zm22.925-2.551a2.55 2.55 0 01-2.548 2.551 2.55 2.55 0 01-2.547-2.551 2.55 2.55 0 012.547-2.552 2.55 2.55 0 012.548 2.552zm17.83 2.551a2.549 2.549 0 002.547-2.551c0-1.41-1.14-2.552-2.547-2.552a2.549 2.549 0 00-2.547 2.552 2.549 2.549 0 002.547 2.551zM5.094 342.966a2.549 2.549 0 01-2.547 2.551A2.549 2.549 0 010 342.966a2.55 2.55 0 012.547-2.552 2.55 2.55 0 012.547 2.552zm17.83 2.551a2.549 2.549 0 002.548-2.551 2.55 2.55 0 00-2.548-2.552 2.55 2.55 0 00-2.547 2.552 2.549 2.549 0 002.547 2.551zm22.926-2.551a2.549 2.549 0 01-2.548 2.551 2.549 2.549 0 01-2.547-2.551 2.55 2.55 0 012.547-2.552 2.55 2.55 0 012.547 2.552zm17.83 2.551a2.549 2.549 0 002.546-2.551 2.55 2.55 0 00-2.547-2.552 2.55 2.55 0 00-2.547 2.552 2.549 2.549 0 002.547 2.551zm22.924-2.551a2.549 2.549 0 01-2.547 2.551 2.549 2.549 0 01-2.548-2.551 2.55 2.55 0 012.548-2.552 2.55 2.55 0 012.547 2.552zm17.83 2.551a2.549 2.549 0 002.547-2.551c0-1.41-1.14-2.552-2.547-2.552a2.549 2.549 0 00-2.547 2.552 2.549 2.549 0 002.547 2.551zm22.924-2.551a2.549 2.549 0 01-2.547 2.551 2.55 2.55 0 01-2.547-2.551 2.55 2.55 0 012.547-2.552 2.549 2.549 0 012.547 2.552zm17.831 2.551a2.55 2.55 0 002.547-2.551 2.55 2.55 0 00-2.547-2.552 2.549 2.549 0 00-2.547 2.552 2.549 2.549 0 002.547 2.551zm22.924-2.551a2.549 2.549 0 01-2.547 2.551 2.549 2.549 0 01-2.547-2.551c0-1.41 1.14-2.552 2.547-2.552a2.549 2.549 0 012.547 2.552zm17.83 2.551a2.55 2.55 0 002.548-2.551 2.55 2.55 0 00-2.548-2.552 2.55 2.55 0 00-2.547 2.552 2.55 2.55 0 002.547 2.551zm22.925-2.551a2.549 2.549 0 01-2.547 2.551 2.549 2.549 0 01-2.547-2.551c0-1.41 1.14-2.552 2.547-2.552a2.549 2.549 0 012.547 2.552zm17.83 2.551a2.549 2.549 0 002.547-2.551c0-1.41-1.14-2.552-2.547-2.552a2.549 2.549 0 00-2.547 2.552 2.549 2.549 0 002.547 2.551zm22.925-2.551a2.55 2.55 0 01-2.548 2.551 2.55 2.55 0 01-2.547-2.551 2.55 2.55 0 012.547-2.552 2.55 2.55 0 012.548 2.552zm17.83 2.551a2.549 2.549 0 002.547-2.551c0-1.41-1.14-2.552-2.547-2.552a2.549 2.549 0 00-2.547 2.552 2.549 2.549 0 002.547 2.551zM5.094 363.379a2.55 2.55 0 01-2.547 2.552A2.55 2.55 0 010 363.379a2.549 2.549 0 012.547-2.551 2.549 2.549 0 012.547 2.551zm17.83 2.552a2.55 2.55 0 002.548-2.552 2.549 2.549 0 00-2.548-2.551 2.549 2.549 0 00-2.547 2.551 2.55 2.55 0 002.547 2.552zm22.926-2.552a2.55 2.55 0 01-2.548 2.552 2.55 2.55 0 01-2.547-2.552 2.549 2.549 0 012.547-2.551 2.549 2.549 0 012.547 2.551zm17.83 2.552a2.55 2.55 0 002.546-2.552 2.549 2.549 0 00-2.547-2.551 2.549 2.549 0 00-2.547 2.551 2.55 2.55 0 002.547 2.552zm22.924-2.552a2.55 2.55 0 01-2.547 2.552 2.55 2.55 0 01-2.548-2.552 2.549 2.549 0 012.548-2.551 2.549 2.549 0 012.547 2.551zm17.83 2.552a2.549 2.549 0 002.547-2.552 2.549 2.549 0 00-2.547-2.551 2.549 2.549 0 00-2.547 2.551c0 1.41 1.14 2.552 2.547 2.552zm22.924-2.552c0 1.41-1.14 2.552-2.547 2.552a2.55 2.55 0 01-2.547-2.552 2.55 2.55 0 012.547-2.551 2.549 2.549 0 012.547 2.551zm17.831 2.552a2.55 2.55 0 002.547-2.552 2.55 2.55 0 00-2.547-2.551 2.549 2.549 0 00-2.547 2.551c0 1.41 1.14 2.552 2.547 2.552zm22.924-2.552c0 1.41-1.14 2.552-2.547 2.552a2.549 2.549 0 01-2.547-2.552 2.549 2.549 0 012.547-2.551 2.549 2.549 0 012.547 2.551zm17.83 2.552a2.55 2.55 0 002.548-2.552 2.55 2.55 0 00-2.548-2.551 2.55 2.55 0 00-2.547 2.551 2.55 2.55 0 002.547 2.552zm22.925-2.552c0 1.41-1.14 2.552-2.547 2.552a2.549 2.549 0 01-2.547-2.552 2.549 2.549 0 012.547-2.551 2.549 2.549 0 012.547 2.551zm17.83 2.552a2.549 2.549 0 002.547-2.552 2.549 2.549 0 00-2.547-2.551 2.549 2.549 0 00-2.547 2.551c0 1.41 1.14 2.552 2.547 2.552zm22.925-2.552a2.55 2.55 0 01-2.548 2.552 2.55 2.55 0 01-2.547-2.552 2.55 2.55 0 012.547-2.551 2.55 2.55 0 012.548 2.551zm17.83 2.552a2.549 2.549 0 002.547-2.552 2.549 2.549 0 00-2.547-2.551 2.549 2.549 0 00-2.547 2.551c0 1.41 1.14 2.552 2.547 2.552zM5.094 383.793a2.55 2.55 0 01-2.547 2.552A2.55 2.55 0 010 383.793a2.55 2.55 0 012.547-2.552 2.55 2.55 0 012.547 2.552zm17.83 2.552a2.55 2.55 0 002.548-2.552 2.55 2.55 0 00-2.548-2.552 2.55 2.55 0 00-2.547 2.552 2.55 2.55 0 002.547 2.552zm22.926-2.552a2.55 2.55 0 01-2.548 2.552 2.55 2.55 0 01-2.547-2.552 2.55 2.55 0 012.547-2.552 2.55 2.55 0 012.547 2.552zm17.83 2.552a2.55 2.55 0 002.546-2.552 2.55 2.55 0 00-2.547-2.552 2.55 2.55 0 00-2.547 2.552 2.55 2.55 0 002.547 2.552zm22.924-2.552a2.55 2.55 0 01-2.547 2.552 2.55 2.55 0 01-2.548-2.552 2.55 2.55 0 012.548-2.552 2.55 2.55 0 012.547 2.552zm17.83 2.552a2.55 2.55 0 002.547-2.552 2.55 2.55 0 00-2.547-2.552 2.55 2.55 0 00-2.547 2.552 2.55 2.55 0 002.547 2.552zm22.924-2.552a2.55 2.55 0 01-2.547 2.552 2.55 2.55 0 01-2.547-2.552 2.55 2.55 0 012.547-2.552 2.55 2.55 0 012.547 2.552zm17.831 2.552a2.55 2.55 0 002.547-2.552 2.55 2.55 0 00-2.547-2.552 2.55 2.55 0 00-2.547 2.552 2.55 2.55 0 002.547 2.552zm22.924-2.552a2.55 2.55 0 01-2.547 2.552 2.55 2.55 0 01-2.547-2.552 2.55 2.55 0 012.547-2.552 2.55 2.55 0 012.547 2.552zm17.83 2.552a2.55 2.55 0 002.548-2.552 2.55 2.55 0 00-2.548-2.552 2.55 2.55 0 00-2.547 2.552 2.55 2.55 0 002.547 2.552zm22.925-2.552a2.55 2.55 0 01-2.547 2.552 2.55 2.55 0 01-2.547-2.552 2.55 2.55 0 012.547-2.552 2.55 2.55 0 012.547 2.552zm17.83 2.552a2.55 2.55 0 002.547-2.552 2.55 2.55 0 00-2.547-2.552 2.55 2.55 0 00-2.547 2.552 2.55 2.55 0 002.547 2.552zm22.925-2.552a2.55 2.55 0 01-2.548 2.552 2.55 2.55 0 01-2.547-2.552 2.55 2.55 0 012.547-2.552 2.55 2.55 0 012.548 2.552zm17.83 2.552a2.55 2.55 0 002.547-2.552 2.55 2.55 0 00-2.547-2.552 2.55 2.55 0 00-2.547 2.552 2.55 2.55 0 002.547 2.552zM5.094 404.207a2.55 2.55 0 01-2.547 2.552A2.55 2.55 0 010 404.207a2.55 2.55 0 012.547-2.552 2.55 2.55 0 012.547 2.552zm17.83 2.552a2.55 2.55 0 002.548-2.552 2.55 2.55 0 00-2.548-2.552 2.55 2.55 0 00-2.547 2.552 2.55 2.55 0 002.547 2.552zm22.926-2.552a2.55 2.55 0 01-2.548 2.552 2.55 2.55 0 01-2.547-2.552 2.55 2.55 0 012.547-2.552 2.55 2.55 0 012.547 2.552zm17.83 2.552a2.55 2.55 0 002.546-2.552 2.55 2.55 0 00-2.547-2.552 2.55 2.55 0 00-2.547 2.552 2.55 2.55 0 002.547 2.552zm22.924-2.552a2.55 2.55 0 01-2.547 2.552 2.55 2.55 0 01-2.548-2.552 2.55 2.55 0 012.548-2.552 2.55 2.55 0 012.547 2.552zm17.83 2.552a2.55 2.55 0 002.547-2.552 2.55 2.55 0 00-2.547-2.552 2.55 2.55 0 00-2.547 2.552 2.55 2.55 0 002.547 2.552zm22.924-2.552a2.55 2.55 0 01-2.547 2.552 2.55 2.55 0 01-2.547-2.552 2.55 2.55 0 012.547-2.552 2.55 2.55 0 012.547 2.552zm17.831 2.552a2.55 2.55 0 002.547-2.552 2.55 2.55 0 00-2.547-2.552 2.55 2.55 0 00-2.547 2.552 2.55 2.55 0 002.547 2.552zm22.924-2.552a2.55 2.55 0 01-2.547 2.552 2.55 2.55 0 01-2.547-2.552 2.55 2.55 0 012.547-2.552 2.55 2.55 0 012.547 2.552zm17.83 2.552a2.55 2.55 0 002.548-2.552 2.55 2.55 0 00-2.548-2.552 2.55 2.55 0 00-2.547 2.552 2.55 2.55 0 002.547 2.552zm22.925-2.552a2.55 2.55 0 01-2.547 2.552 2.55 2.55 0 01-2.547-2.552 2.55 2.55 0 012.547-2.552 2.55 2.55 0 012.547 2.552zm17.83 2.552a2.55 2.55 0 002.547-2.552 2.55 2.55 0 00-2.547-2.552 2.55 2.55 0 00-2.547 2.552 2.55 2.55 0 002.547 2.552zm22.925-2.552a2.55 2.55 0 01-2.548 2.552 2.55 2.55 0 01-2.547-2.552 2.55 2.55 0 012.547-2.552 2.55 2.55 0 012.548 2.552zm17.83 2.552a2.55 2.55 0 002.547-2.552 2.55 2.55 0 00-2.547-2.552 2.55 2.55 0 00-2.547 2.552 2.55 2.55 0 002.547 2.552zM5.094 424.621a2.549 2.549 0 01-2.547 2.551A2.549 2.549 0 010 424.621a2.55 2.55 0 012.547-2.552 2.55 2.55 0 012.547 2.552zm17.83 2.551a2.549 2.549 0 002.548-2.551 2.55 2.55 0 00-2.548-2.552 2.55 2.55 0 00-2.547 2.552 2.549 2.549 0 002.547 2.551zm22.926-2.551a2.549 2.549 0 01-2.548 2.551 2.549 2.549 0 01-2.547-2.551 2.55 2.55 0 012.547-2.552 2.55 2.55 0 012.547 2.552zm17.83 2.551a2.549 2.549 0 002.546-2.551 2.55 2.55 0 00-2.547-2.552 2.55 2.55 0 00-2.547 2.552 2.549 2.549 0 002.547 2.551zm22.924-2.551a2.549 2.549 0 01-2.547 2.551 2.549 2.549 0 01-2.548-2.551 2.55 2.55 0 012.548-2.552 2.55 2.55 0 012.547 2.552zm17.83 2.551a2.549 2.549 0 002.547-2.551c0-1.41-1.14-2.552-2.547-2.552a2.549 2.549 0 00-2.547 2.552 2.549 2.549 0 002.547 2.551zm22.924-2.551a2.549 2.549 0 01-2.547 2.551 2.55 2.55 0 01-2.547-2.551 2.55 2.55 0 012.547-2.552 2.549 2.549 0 012.547 2.552zm17.831 2.551a2.55 2.55 0 002.547-2.551 2.55 2.55 0 00-2.547-2.552 2.549 2.549 0 00-2.547 2.552 2.549 2.549 0 002.547 2.551zm22.924-2.551a2.549 2.549 0 01-2.547 2.551 2.549 2.549 0 01-2.547-2.551c0-1.41 1.14-2.552 2.547-2.552a2.549 2.549 0 012.547 2.552zm17.83 2.551a2.55 2.55 0 002.548-2.551 2.55 2.55 0 00-2.548-2.552 2.55 2.55 0 00-2.547 2.552 2.55 2.55 0 002.547 2.551zm22.925-2.551a2.549 2.549 0 01-2.547 2.551 2.549 2.549 0 01-2.547-2.551c0-1.41 1.14-2.552 2.547-2.552a2.549 2.549 0 012.547 2.552zm17.83 2.551a2.549 2.549 0 002.547-2.551c0-1.41-1.14-2.552-2.547-2.552a2.549 2.549 0 00-2.547 2.552 2.549 2.549 0 002.547 2.551zm22.925-2.551a2.55 2.55 0 01-2.548 2.551 2.55 2.55 0 01-2.547-2.551 2.55 2.55 0 012.547-2.552 2.55 2.55 0 012.548 2.552zm17.83 2.551a2.549 2.549 0 002.547-2.551c0-1.41-1.14-2.552-2.547-2.552a2.549 2.549 0 00-2.547 2.552 2.549 2.549 0 002.547 2.551zM5.094 445.034a2.55 2.55 0 01-2.547 2.552A2.55 2.55 0 010 445.034a2.549 2.549 0 012.547-2.551 2.549 2.549 0 012.547 2.551zm17.83 2.552a2.55 2.55 0 002.548-2.552 2.549 2.549 0 00-2.548-2.551 2.549 2.549 0 00-2.547 2.551 2.55 2.55 0 002.547 2.552zm22.926-2.552a2.55 2.55 0 01-2.548 2.552 2.55 2.55 0 01-2.547-2.552 2.549 2.549 0 012.547-2.551 2.549 2.549 0 012.547 2.551zm17.83 2.552a2.55 2.55 0 002.546-2.552 2.549 2.549 0 00-2.547-2.551 2.549 2.549 0 00-2.547 2.551 2.55 2.55 0 002.547 2.552zm22.924-2.552a2.55 2.55 0 01-2.547 2.552 2.55 2.55 0 01-2.548-2.552 2.549 2.549 0 012.548-2.551 2.549 2.549 0 012.547 2.551zm17.83 2.552a2.549 2.549 0 002.547-2.552 2.549 2.549 0 00-2.547-2.551 2.549 2.549 0 00-2.547 2.551c0 1.41 1.14 2.552 2.547 2.552zm22.924-2.552c0 1.41-1.14 2.552-2.547 2.552a2.55 2.55 0 01-2.547-2.552 2.55 2.55 0 012.547-2.551 2.549 2.549 0 012.547 2.551zm17.831 2.552a2.55 2.55 0 002.547-2.552 2.55 2.55 0 00-2.547-2.551 2.549 2.549 0 00-2.547 2.551c0 1.41 1.14 2.552 2.547 2.552zm22.924-2.552c0 1.41-1.14 2.552-2.547 2.552a2.549 2.549 0 01-2.547-2.552 2.549 2.549 0 012.547-2.551 2.549 2.549 0 012.547 2.551zm17.83 2.552a2.55 2.55 0 002.548-2.552 2.55 2.55 0 00-2.548-2.551 2.55 2.55 0 00-2.547 2.551 2.55 2.55 0 002.547 2.552zm22.925-2.552c0 1.41-1.14 2.552-2.547 2.552a2.549 2.549 0 01-2.547-2.552 2.549 2.549 0 012.547-2.551 2.549 2.549 0 012.547 2.551zm17.83 2.552a2.549 2.549 0 002.547-2.552 2.549 2.549 0 00-2.547-2.551 2.549 2.549 0 00-2.547 2.551c0 1.41 1.14 2.552 2.547 2.552zm22.925-2.552a2.55 2.55 0 01-2.548 2.552 2.55 2.55 0 01-2.547-2.552 2.55 2.55 0 012.547-2.551 2.55 2.55 0 012.548 2.551zm17.83 2.552a2.549 2.549 0 002.547-2.552 2.549 2.549 0 00-2.547-2.551 2.549 2.549 0 00-2.547 2.551c0 1.41 1.14 2.552 2.547 2.552zM5.094 465.448A2.55 2.55 0 012.547 468 2.55 2.55 0 010 465.448a2.549 2.549 0 012.547-2.551 2.549 2.549 0 012.547 2.551zM22.924 468a2.55 2.55 0 002.548-2.552 2.549 2.549 0 00-2.548-2.551 2.549 2.549 0 00-2.547 2.551A2.55 2.55 0 0022.924 468zm22.926-2.552A2.55 2.55 0 0143.301 468a2.55 2.55 0 01-2.547-2.552 2.549 2.549 0 012.547-2.551 2.549 2.549 0 012.547 2.551zM63.68 468a2.55 2.55 0 002.546-2.552 2.549 2.549 0 00-2.547-2.551 2.549 2.549 0 00-2.547 2.551A2.55 2.55 0 0063.68 468zm22.924-2.552A2.55 2.55 0 0184.057 468a2.55 2.55 0 01-2.548-2.552 2.549 2.549 0 012.548-2.551 2.549 2.549 0 012.547 2.551zm17.83 2.552a2.549 2.549 0 002.547-2.552 2.549 2.549 0 00-2.547-2.551 2.549 2.549 0 00-2.547 2.551c0 1.41 1.14 2.552 2.547 2.552zm22.924-2.552c0 1.41-1.14 2.552-2.547 2.552a2.55 2.55 0 01-2.547-2.552 2.55 2.55 0 012.547-2.551 2.549 2.549 0 012.547 2.551zM145.189 468a2.55 2.55 0 002.547-2.552 2.55 2.55 0 00-2.547-2.551 2.549 2.549 0 00-2.547 2.551c0 1.41 1.14 2.552 2.547 2.552zm22.924-2.552c0 1.41-1.14 2.552-2.547 2.552a2.549 2.549 0 01-2.547-2.552 2.549 2.549 0 012.547-2.551 2.549 2.549 0 012.547 2.551zm17.83 2.552a2.55 2.55 0 002.548-2.552 2.55 2.55 0 00-2.548-2.551 2.55 2.55 0 00-2.547 2.551 2.55 2.55 0 002.547 2.552zm22.925-2.552c0 1.41-1.14 2.552-2.547 2.552a2.549 2.549 0 01-2.547-2.552 2.549 2.549 0 012.547-2.551 2.549 2.549 0 012.547 2.551zm17.83 2.552a2.549 2.549 0 002.547-2.552 2.549 2.549 0 00-2.547-2.551 2.549 2.549 0 00-2.547 2.551c0 1.41 1.14 2.552 2.547 2.552zm22.925-2.552a2.55 2.55 0 01-2.548 2.552 2.55 2.55 0 01-2.547-2.552 2.55 2.55 0 012.547-2.551 2.55 2.55 0 012.548 2.551zm17.83 2.552a2.549 2.549 0 002.547-2.552 2.549 2.549 0 00-2.547-2.551 2.549 2.549 0 00-2.547 2.551c0 1.41 1.14 2.552 2.547 2.552z" opacity=".5" fill="#BAD9E7"/><defs><linearGradient id="paint0_linear" x1="316.973" y1=".032" x2="316.973" y2="434.032" gradientUnits="userSpaceOnUse"><stop stop-color="#BAD9E7" stop-opacity=".44"/><stop offset="1" stop-color="#fff"/></linearGradient></defs></svg>