<svg width="580" height="573" viewBox="0 0 580 573" fill="none" xmlns="http://www.w3.org/2000/svg">
<path fill-rule="evenodd" clip-rule="evenodd" d="M367.534 82.2938C367.534 82.2938 474.747 94.6053 465.913 199.955C459.506 276.461 505.867 304.465 519.57 347.333C534.399 393.566 504.054 514.877 380.944 474.2C257.835 433.522 252.142 502.904 187.124 533.086C122.107 563.269 -70.7199 305.269 176.476 163.809C254.265 119.238 258.673 80.6712 367.534 82.2938Z" fill="url(#paint0_linear)"/>
<g opacity="0.5">
<path d="M18.1604 335.345C19.9058 335.345 21.3208 333.924 21.3208 332.172C21.3208 330.42 19.9058 329 18.1604 329C16.4149 329 15 330.42 15 332.172C15 333.924 16.4149 335.345 18.1604 335.345Z" fill="#BAD9E7"/>
<path d="M43.4434 335.345C45.1889 335.345 46.6038 333.924 46.6038 332.172C46.6038 330.42 45.1889 329 43.4434 329C41.6979 329 40.283 330.42 40.283 332.172C40.283 333.924 41.6979 335.345 43.4434 335.345Z" fill="#BAD9E7"/>
<path d="M71.8868 332.172C71.8868 333.924 70.4719 335.345 68.7264 335.345C66.981 335.345 65.566 333.924 65.566 332.172C65.566 330.42 66.981 329 68.7264 329C70.4719 329 71.8868 330.42 71.8868 332.172Z" fill="#BAD9E7"/>
<path d="M94.0094 335.345C95.7549 335.345 97.1698 333.924 97.1698 332.172C97.1698 330.42 95.7549 329 94.0094 329C92.264 329 90.8491 330.42 90.8491 332.172C90.8491 333.924 92.264 335.345 94.0094 335.345Z" fill="#BAD9E7"/>
<path d="M122.453 332.172C122.453 333.924 121.038 335.345 119.292 335.345C117.547 335.345 116.132 333.924 116.132 332.172C116.132 330.42 117.547 329 119.292 329C121.038 329 122.453 330.42 122.453 332.172Z" fill="#BAD9E7"/>
<path d="M144.575 335.345C146.321 335.345 147.736 333.924 147.736 332.172C147.736 330.42 146.321 329 144.575 329C142.83 329 141.415 330.42 141.415 332.172C141.415 333.924 142.83 335.345 144.575 335.345Z" fill="#BAD9E7"/>
<path d="M173.019 332.172C173.019 333.924 171.604 335.345 169.858 335.345C168.113 335.345 166.698 333.924 166.698 332.172C166.698 330.42 168.113 329 169.858 329C171.604 329 173.019 330.42 173.019 332.172Z" fill="#BAD9E7"/>
<path d="M195.142 335.345C196.887 335.345 198.302 333.924 198.302 332.172C198.302 330.42 196.887 329 195.142 329C193.396 329 191.981 330.42 191.981 332.172C191.981 333.924 193.396 335.345 195.142 335.345Z" fill="#BAD9E7"/>
<path d="M223.585 332.172C223.585 333.924 222.17 335.345 220.425 335.345C218.679 335.345 217.264 333.924 217.264 332.172C217.264 330.42 218.679 329 220.425 329C222.17 329 223.585 330.42 223.585 332.172Z" fill="#BAD9E7"/>
<path d="M245.708 335.345C247.453 335.345 248.868 333.924 248.868 332.172C248.868 330.42 247.453 329 245.708 329C243.962 329 242.547 330.42 242.547 332.172C242.547 333.924 243.962 335.345 245.708 335.345Z" fill="#BAD9E7"/>
<path d="M274.151 332.172C274.151 333.924 272.736 335.345 270.991 335.345C269.245 335.345 267.83 333.924 267.83 332.172C267.83 330.42 269.245 329 270.991 329C272.736 329 274.151 330.42 274.151 332.172Z" fill="#BAD9E7"/>
<path d="M296.274 335.345C298.019 335.345 299.434 333.924 299.434 332.172C299.434 330.42 298.019 329 296.274 329C294.528 329 293.113 330.42 293.113 332.172C293.113 333.924 294.528 335.345 296.274 335.345Z" fill="#BAD9E7"/>
<path d="M324.717 332.172C324.717 333.924 323.302 335.345 321.557 335.345C319.811 335.345 318.396 333.924 318.396 332.172C318.396 330.42 319.811 329 321.557 329C323.302 329 324.717 330.42 324.717 332.172Z" fill="#BAD9E7"/>
<path d="M346.84 335.345C348.585 335.345 350 333.924 350 332.172C350 330.42 348.585 329 346.84 329C345.094 329 343.679 330.42 343.679 332.172C343.679 333.924 345.094 335.345 346.84 335.345Z" fill="#BAD9E7"/>
<path d="M21.3208 357.552C21.3208 359.304 19.9058 360.724 18.1604 360.724C16.4149 360.724 15 359.304 15 357.552C15 355.8 16.4149 354.379 18.1604 354.379C19.9058 354.379 21.3208 355.8 21.3208 357.552Z" fill="#BAD9E7"/>
<path d="M43.4434 360.724C45.1889 360.724 46.6038 359.304 46.6038 357.552C46.6038 355.8 45.1889 354.379 43.4434 354.379C41.6979 354.379 40.283 355.8 40.283 357.552C40.283 359.304 41.6979 360.724 43.4434 360.724Z" fill="#BAD9E7"/>
<path d="M71.8868 357.552C71.8868 359.304 70.4719 360.724 68.7264 360.724C66.981 360.724 65.566 359.304 65.566 357.552C65.566 355.8 66.981 354.379 68.7264 354.379C70.4719 354.379 71.8868 355.8 71.8868 357.552Z" fill="#BAD9E7"/>
<path d="M94.0094 360.724C95.7549 360.724 97.1698 359.304 97.1698 357.552C97.1698 355.8 95.7549 354.379 94.0094 354.379C92.264 354.379 90.8491 355.8 90.8491 357.552C90.8491 359.304 92.264 360.724 94.0094 360.724Z" fill="#BAD9E7"/>
<path d="M122.453 357.552C122.453 359.304 121.038 360.724 119.292 360.724C117.547 360.724 116.132 359.304 116.132 357.552C116.132 355.8 117.547 354.379 119.292 354.379C121.038 354.379 122.453 355.8 122.453 357.552Z" fill="#BAD9E7"/>
<path d="M144.575 360.724C146.321 360.724 147.736 359.304 147.736 357.552C147.736 355.8 146.321 354.379 144.575 354.379C142.83 354.379 141.415 355.8 141.415 357.552C141.415 359.304 142.83 360.724 144.575 360.724Z" fill="#BAD9E7"/>
<path d="M173.019 357.552C173.019 359.304 171.604 360.724 169.858 360.724C168.113 360.724 166.698 359.304 166.698 357.552C166.698 355.8 168.113 354.379 169.858 354.379C171.604 354.379 173.019 355.8 173.019 357.552Z" fill="#BAD9E7"/>
<path d="M195.142 360.724C196.887 360.724 198.302 359.304 198.302 357.552C198.302 355.8 196.887 354.379 195.142 354.379C193.396 354.379 191.981 355.8 191.981 357.552C191.981 359.304 193.396 360.724 195.142 360.724Z" fill="#BAD9E7"/>
<path d="M223.585 357.552C223.585 359.304 222.17 360.724 220.425 360.724C218.679 360.724 217.264 359.304 217.264 357.552C217.264 355.8 218.679 354.379 220.425 354.379C222.17 354.379 223.585 355.8 223.585 357.552Z" fill="#BAD9E7"/>
<path d="M245.708 360.724C247.453 360.724 248.868 359.304 248.868 357.552C248.868 355.8 247.453 354.379 245.708 354.379C243.962 354.379 242.547 355.8 242.547 357.552C242.547 359.304 243.962 360.724 245.708 360.724Z" fill="#BAD9E7"/>
<path d="M274.151 357.552C274.151 359.304 272.736 360.724 270.991 360.724C269.245 360.724 267.83 359.304 267.83 357.552C267.83 355.8 269.245 354.379 270.991 354.379C272.736 354.379 274.151 355.8 274.151 357.552Z" fill="#BAD9E7"/>
<path d="M296.274 360.724C298.019 360.724 299.434 359.304 299.434 357.552C299.434 355.8 298.019 354.379 296.274 354.379C294.528 354.379 293.113 355.8 293.113 357.552C293.113 359.304 294.528 360.724 296.274 360.724Z" fill="#BAD9E7"/>
<path d="M324.717 357.552C324.717 359.304 323.302 360.724 321.557 360.724C319.811 360.724 318.396 359.304 318.396 357.552C318.396 355.8 319.811 354.379 321.557 354.379C323.302 354.379 324.717 355.8 324.717 357.552Z" fill="#BAD9E7"/>
<path d="M346.84 360.724C348.585 360.724 350 359.304 350 357.552C350 355.8 348.585 354.379 346.84 354.379C345.094 354.379 343.679 355.8 343.679 357.552C343.679 359.304 345.094 360.724 346.84 360.724Z" fill="#BAD9E7"/>
<path d="M21.3208 382.931C21.3208 384.683 19.9058 386.103 18.1604 386.103C16.4149 386.103 15 384.683 15 382.931C15 381.179 16.4149 379.759 18.1604 379.759C19.9058 379.759 21.3208 381.179 21.3208 382.931Z" fill="#BAD9E7"/>
<path d="M43.4434 386.103C45.1889 386.103 46.6038 384.683 46.6038 382.931C46.6038 381.179 45.1889 379.759 43.4434 379.759C41.6979 379.759 40.283 381.179 40.283 382.931C40.283 384.683 41.6979 386.103 43.4434 386.103Z" fill="#BAD9E7"/>
<path d="M71.8868 382.931C71.8868 384.683 70.4719 386.103 68.7264 386.103C66.981 386.103 65.566 384.683 65.566 382.931C65.566 381.179 66.981 379.759 68.7264 379.759C70.4719 379.759 71.8868 381.179 71.8868 382.931Z" fill="#BAD9E7"/>
<path d="M94.0094 386.103C95.7549 386.103 97.1698 384.683 97.1698 382.931C97.1698 381.179 95.7549 379.759 94.0094 379.759C92.264 379.759 90.8491 381.179 90.8491 382.931C90.8491 384.683 92.264 386.103 94.0094 386.103Z" fill="#BAD9E7"/>
<path d="M122.453 382.931C122.453 384.683 121.038 386.103 119.292 386.103C117.547 386.103 116.132 384.683 116.132 382.931C116.132 381.179 117.547 379.759 119.292 379.759C121.038 379.759 122.453 381.179 122.453 382.931Z" fill="#BAD9E7"/>
<path d="M144.575 386.103C146.321 386.103 147.736 384.683 147.736 382.931C147.736 381.179 146.321 379.759 144.575 379.759C142.83 379.759 141.415 381.179 141.415 382.931C141.415 384.683 142.83 386.103 144.575 386.103Z" fill="#BAD9E7"/>
<path d="M173.019 382.931C173.019 384.683 171.604 386.103 169.858 386.103C168.113 386.103 166.698 384.683 166.698 382.931C166.698 381.179 168.113 379.759 169.858 379.759C171.604 379.759 173.019 381.179 173.019 382.931Z" fill="#BAD9E7"/>
<path d="M195.142 386.103C196.887 386.103 198.302 384.683 198.302 382.931C198.302 381.179 196.887 379.759 195.142 379.759C193.396 379.759 191.981 381.179 191.981 382.931C191.981 384.683 193.396 386.103 195.142 386.103Z" fill="#BAD9E7"/>
<path d="M223.585 382.931C223.585 384.683 222.17 386.103 220.425 386.103C218.679 386.103 217.264 384.683 217.264 382.931C217.264 381.179 218.679 379.759 220.425 379.759C222.17 379.759 223.585 381.179 223.585 382.931Z" fill="#BAD9E7"/>
<path d="M245.708 386.103C247.453 386.103 248.868 384.683 248.868 382.931C248.868 381.179 247.453 379.759 245.708 379.759C243.962 379.759 242.547 381.179 242.547 382.931C242.547 384.683 243.962 386.103 245.708 386.103Z" fill="#BAD9E7"/>
<path d="M274.151 382.931C274.151 384.683 272.736 386.103 270.991 386.103C269.245 386.103 267.83 384.683 267.83 382.931C267.83 381.179 269.245 379.759 270.991 379.759C272.736 379.759 274.151 381.179 274.151 382.931Z" fill="#BAD9E7"/>
<path d="M296.274 386.103C298.019 386.103 299.434 384.683 299.434 382.931C299.434 381.179 298.019 379.759 296.274 379.759C294.528 379.759 293.113 381.179 293.113 382.931C293.113 384.683 294.528 386.103 296.274 386.103Z" fill="#BAD9E7"/>
<path d="M324.717 382.931C324.717 384.683 323.302 386.103 321.557 386.103C319.811 386.103 318.396 384.683 318.396 382.931C318.396 381.179 319.811 379.759 321.557 379.759C323.302 379.759 324.717 381.179 324.717 382.931Z" fill="#BAD9E7"/>
<path d="M346.84 386.103C348.585 386.103 350 384.683 350 382.931C350 381.179 348.585 379.759 346.84 379.759C345.094 379.759 343.679 381.179 343.679 382.931C343.679 384.683 345.094 386.103 346.84 386.103Z" fill="#BAD9E7"/>
<path d="M21.3208 408.31C21.3208 410.062 19.9058 411.483 18.1604 411.483C16.4149 411.483 15 410.062 15 408.31C15 406.558 16.4149 405.138 18.1604 405.138C19.9058 405.138 21.3208 406.558 21.3208 408.31Z" fill="#BAD9E7"/>
<path d="M43.4434 411.483C45.1889 411.483 46.6038 410.062 46.6038 408.31C46.6038 406.558 45.1889 405.138 43.4434 405.138C41.6979 405.138 40.283 406.558 40.283 408.31C40.283 410.062 41.6979 411.483 43.4434 411.483Z" fill="#BAD9E7"/>
<path d="M71.8868 408.31C71.8868 410.062 70.4719 411.483 68.7264 411.483C66.981 411.483 65.566 410.062 65.566 408.31C65.566 406.558 66.981 405.138 68.7264 405.138C70.4719 405.138 71.8868 406.558 71.8868 408.31Z" fill="#BAD9E7"/>
<path d="M94.0094 411.483C95.7549 411.483 97.1698 410.062 97.1698 408.31C97.1698 406.558 95.7549 405.138 94.0094 405.138C92.264 405.138 90.8491 406.558 90.8491 408.31C90.8491 410.062 92.264 411.483 94.0094 411.483Z" fill="#BAD9E7"/>
<path d="M122.453 408.31C122.453 410.062 121.038 411.483 119.292 411.483C117.547 411.483 116.132 410.062 116.132 408.31C116.132 406.558 117.547 405.138 119.292 405.138C121.038 405.138 122.453 406.558 122.453 408.31Z" fill="#BAD9E7"/>
<path d="M144.575 411.483C146.321 411.483 147.736 410.062 147.736 408.31C147.736 406.558 146.321 405.138 144.575 405.138C142.83 405.138 141.415 406.558 141.415 408.31C141.415 410.062 142.83 411.483 144.575 411.483Z" fill="#BAD9E7"/>
<path d="M173.019 408.31C173.019 410.062 171.604 411.483 169.858 411.483C168.113 411.483 166.698 410.062 166.698 408.31C166.698 406.558 168.113 405.138 169.858 405.138C171.604 405.138 173.019 406.558 173.019 408.31Z" fill="#BAD9E7"/>
<path d="M195.142 411.483C196.887 411.483 198.302 410.062 198.302 408.31C198.302 406.558 196.887 405.138 195.142 405.138C193.396 405.138 191.981 406.558 191.981 408.31C191.981 410.062 193.396 411.483 195.142 411.483Z" fill="#BAD9E7"/>
<path d="M223.585 408.31C223.585 410.062 222.17 411.483 220.425 411.483C218.679 411.483 217.264 410.062 217.264 408.31C217.264 406.558 218.679 405.138 220.425 405.138C222.17 405.138 223.585 406.558 223.585 408.31Z" fill="#BAD9E7"/>
<path d="M245.708 411.483C247.453 411.483 248.868 410.062 248.868 408.31C248.868 406.558 247.453 405.138 245.708 405.138C243.962 405.138 242.547 406.558 242.547 408.31C242.547 410.062 243.962 411.483 245.708 411.483Z" fill="#BAD9E7"/>
<path d="M274.151 408.31C274.151 410.062 272.736 411.483 270.991 411.483C269.245 411.483 267.83 410.062 267.83 408.31C267.83 406.558 269.245 405.138 270.991 405.138C272.736 405.138 274.151 406.558 274.151 408.31Z" fill="#BAD9E7"/>
<path d="M296.274 411.483C298.019 411.483 299.434 410.062 299.434 408.31C299.434 406.558 298.019 405.138 296.274 405.138C294.528 405.138 293.113 406.558 293.113 408.31C293.113 410.062 294.528 411.483 296.274 411.483Z" fill="#BAD9E7"/>
<path d="M324.717 408.31C324.717 410.062 323.302 411.483 321.557 411.483C319.811 411.483 318.396 410.062 318.396 408.31C318.396 406.558 319.811 405.138 321.557 405.138C323.302 405.138 324.717 406.558 324.717 408.31Z" fill="#BAD9E7"/>
<path d="M346.84 411.483C348.585 411.483 350 410.062 350 408.31C350 406.558 348.585 405.138 346.84 405.138C345.094 405.138 343.679 406.558 343.679 408.31C343.679 410.062 345.094 411.483 346.84 411.483Z" fill="#BAD9E7"/>
<path d="M21.3208 433.69C21.3208 435.442 19.9058 436.862 18.1604 436.862C16.4149 436.862 15 435.442 15 433.69C15 431.938 16.4149 430.517 18.1604 430.517C19.9058 430.517 21.3208 431.938 21.3208 433.69Z" fill="#BAD9E7"/>
<path d="M43.4434 436.862C45.1889 436.862 46.6038 435.442 46.6038 433.69C46.6038 431.938 45.1889 430.517 43.4434 430.517C41.6979 430.517 40.283 431.938 40.283 433.69C40.283 435.442 41.6979 436.862 43.4434 436.862Z" fill="#BAD9E7"/>
<path d="M71.8868 433.69C71.8868 435.442 70.4719 436.862 68.7264 436.862C66.981 436.862 65.566 435.442 65.566 433.69C65.566 431.938 66.981 430.517 68.7264 430.517C70.4719 430.517 71.8868 431.938 71.8868 433.69Z" fill="#BAD9E7"/>
<path d="M94.0094 436.862C95.7549 436.862 97.1698 435.442 97.1698 433.69C97.1698 431.938 95.7549 430.517 94.0094 430.517C92.264 430.517 90.8491 431.938 90.8491 433.69C90.8491 435.442 92.264 436.862 94.0094 436.862Z" fill="#BAD9E7"/>
<path d="M122.453 433.69C122.453 435.442 121.038 436.862 119.292 436.862C117.547 436.862 116.132 435.442 116.132 433.69C116.132 431.938 117.547 430.517 119.292 430.517C121.038 430.517 122.453 431.938 122.453 433.69Z" fill="#BAD9E7"/>
<path d="M144.575 436.862C146.321 436.862 147.736 435.442 147.736 433.69C147.736 431.938 146.321 430.517 144.575 430.517C142.83 430.517 141.415 431.938 141.415 433.69C141.415 435.442 142.83 436.862 144.575 436.862Z" fill="#BAD9E7"/>
<path d="M173.019 433.69C173.019 435.442 171.604 436.862 169.858 436.862C168.113 436.862 166.698 435.442 166.698 433.69C166.698 431.938 168.113 430.517 169.858 430.517C171.604 430.517 173.019 431.938 173.019 433.69Z" fill="#BAD9E7"/>
<path d="M195.142 436.862C196.887 436.862 198.302 435.442 198.302 433.69C198.302 431.938 196.887 430.517 195.142 430.517C193.396 430.517 191.981 431.938 191.981 433.69C191.981 435.442 193.396 436.862 195.142 436.862Z" fill="#BAD9E7"/>
<path d="M223.585 433.69C223.585 435.442 222.17 436.862 220.425 436.862C218.679 436.862 217.264 435.442 217.264 433.69C217.264 431.938 218.679 430.517 220.425 430.517C222.17 430.517 223.585 431.938 223.585 433.69Z" fill="#BAD9E7"/>
<path d="M245.708 436.862C247.453 436.862 248.868 435.442 248.868 433.69C248.868 431.938 247.453 430.517 245.708 430.517C243.962 430.517 242.547 431.938 242.547 433.69C242.547 435.442 243.962 436.862 245.708 436.862Z" fill="#BAD9E7"/>
<path d="M274.151 433.69C274.151 435.442 272.736 436.862 270.991 436.862C269.245 436.862 267.83 435.442 267.83 433.69C267.83 431.938 269.245 430.517 270.991 430.517C272.736 430.517 274.151 431.938 274.151 433.69Z" fill="#BAD9E7"/>
<path d="M296.274 436.862C298.019 436.862 299.434 435.442 299.434 433.69C299.434 431.938 298.019 430.517 296.274 430.517C294.528 430.517 293.113 431.938 293.113 433.69C293.113 435.442 294.528 436.862 296.274 436.862Z" fill="#BAD9E7"/>
<path d="M324.717 433.69C324.717 435.442 323.302 436.862 321.557 436.862C319.811 436.862 318.396 435.442 318.396 433.69C318.396 431.938 319.811 430.517 321.557 430.517C323.302 430.517 324.717 431.938 324.717 433.69Z" fill="#BAD9E7"/>
<path d="M346.84 436.862C348.585 436.862 350 435.442 350 433.69C350 431.938 348.585 430.517 346.84 430.517C345.094 430.517 343.679 431.938 343.679 433.69C343.679 435.442 345.094 436.862 346.84 436.862Z" fill="#BAD9E7"/>
<path d="M21.3208 459.069C21.3208 460.821 19.9058 462.241 18.1604 462.241C16.4149 462.241 15 460.821 15 459.069C15 457.317 16.4149 455.897 18.1604 455.897C19.9058 455.897 21.3208 457.317 21.3208 459.069Z" fill="#BAD9E7"/>
<path d="M43.4434 462.241C45.1889 462.241 46.6038 460.821 46.6038 459.069C46.6038 457.317 45.1889 455.897 43.4434 455.897C41.6979 455.897 40.283 457.317 40.283 459.069C40.283 460.821 41.6979 462.241 43.4434 462.241Z" fill="#BAD9E7"/>
<path d="M71.8868 459.069C71.8868 460.821 70.4719 462.241 68.7264 462.241C66.981 462.241 65.566 460.821 65.566 459.069C65.566 457.317 66.981 455.897 68.7264 455.897C70.4719 455.897 71.8868 457.317 71.8868 459.069Z" fill="#BAD9E7"/>
<path d="M94.0094 462.241C95.7549 462.241 97.1698 460.821 97.1698 459.069C97.1698 457.317 95.7549 455.897 94.0094 455.897C92.264 455.897 90.8491 457.317 90.8491 459.069C90.8491 460.821 92.264 462.241 94.0094 462.241Z" fill="#BAD9E7"/>
<path d="M122.453 459.069C122.453 460.821 121.038 462.241 119.292 462.241C117.547 462.241 116.132 460.821 116.132 459.069C116.132 457.317 117.547 455.897 119.292 455.897C121.038 455.897 122.453 457.317 122.453 459.069Z" fill="#BAD9E7"/>
<path d="M144.575 462.241C146.321 462.241 147.736 460.821 147.736 459.069C147.736 457.317 146.321 455.897 144.575 455.897C142.83 455.897 141.415 457.317 141.415 459.069C141.415 460.821 142.83 462.241 144.575 462.241Z" fill="#BAD9E7"/>
<path d="M173.019 459.069C173.019 460.821 171.604 462.241 169.858 462.241C168.113 462.241 166.698 460.821 166.698 459.069C166.698 457.317 168.113 455.897 169.858 455.897C171.604 455.897 173.019 457.317 173.019 459.069Z" fill="#BAD9E7"/>
<path d="M195.142 462.241C196.887 462.241 198.302 460.821 198.302 459.069C198.302 457.317 196.887 455.897 195.142 455.897C193.396 455.897 191.981 457.317 191.981 459.069C191.981 460.821 193.396 462.241 195.142 462.241Z" fill="#BAD9E7"/>
<path d="M223.585 459.069C223.585 460.821 222.17 462.241 220.425 462.241C218.679 462.241 217.264 460.821 217.264 459.069C217.264 457.317 218.679 455.897 220.425 455.897C222.17 455.897 223.585 457.317 223.585 459.069Z" fill="#BAD9E7"/>
<path d="M245.708 462.241C247.453 462.241 248.868 460.821 248.868 459.069C248.868 457.317 247.453 455.897 245.708 455.897C243.962 455.897 242.547 457.317 242.547 459.069C242.547 460.821 243.962 462.241 245.708 462.241Z" fill="#BAD9E7"/>
<path d="M274.151 459.069C274.151 460.821 272.736 462.241 270.991 462.241C269.245 462.241 267.83 460.821 267.83 459.069C267.83 457.317 269.245 455.897 270.991 455.897C272.736 455.897 274.151 457.317 274.151 459.069Z" fill="#BAD9E7"/>
<path d="M296.274 462.241C298.019 462.241 299.434 460.821 299.434 459.069C299.434 457.317 298.019 455.897 296.274 455.897C294.528 455.897 293.113 457.317 293.113 459.069C293.113 460.821 294.528 462.241 296.274 462.241Z" fill="#BAD9E7"/>
<path d="M324.717 459.069C324.717 460.821 323.302 462.241 321.557 462.241C319.811 462.241 318.396 460.821 318.396 459.069C318.396 457.317 319.811 455.897 321.557 455.897C323.302 455.897 324.717 457.317 324.717 459.069Z" fill="#BAD9E7"/>
<path d="M346.84 462.241C348.585 462.241 350 460.821 350 459.069C350 457.317 348.585 455.897 346.84 455.897C345.094 455.897 343.679 457.317 343.679 459.069C343.679 460.821 345.094 462.241 346.84 462.241Z" fill="#BAD9E7"/>
<path d="M21.3208 484.448C21.3208 486.2 19.9058 487.621 18.1604 487.621C16.4149 487.621 15 486.2 15 484.448C15 482.696 16.4149 481.276 18.1604 481.276C19.9058 481.276 21.3208 482.696 21.3208 484.448Z" fill="#BAD9E7"/>
<path d="M43.4434 487.621C45.1889 487.621 46.6038 486.2 46.6038 484.448C46.6038 482.696 45.1889 481.276 43.4434 481.276C41.6979 481.276 40.283 482.696 40.283 484.448C40.283 486.2 41.6979 487.621 43.4434 487.621Z" fill="#BAD9E7"/>
<path d="M71.8868 484.448C71.8868 486.2 70.4719 487.621 68.7264 487.621C66.981 487.621 65.566 486.2 65.566 484.448C65.566 482.696 66.981 481.276 68.7264 481.276C70.4719 481.276 71.8868 482.696 71.8868 484.448Z" fill="#BAD9E7"/>
<path d="M94.0094 487.621C95.7549 487.621 97.1698 486.2 97.1698 484.448C97.1698 482.696 95.7549 481.276 94.0094 481.276C92.264 481.276 90.8491 482.696 90.8491 484.448C90.8491 486.2 92.264 487.621 94.0094 487.621Z" fill="#BAD9E7"/>
<path d="M122.453 484.448C122.453 486.2 121.038 487.621 119.292 487.621C117.547 487.621 116.132 486.2 116.132 484.448C116.132 482.696 117.547 481.276 119.292 481.276C121.038 481.276 122.453 482.696 122.453 484.448Z" fill="#BAD9E7"/>
<path d="M144.575 487.621C146.321 487.621 147.736 486.2 147.736 484.448C147.736 482.696 146.321 481.276 144.575 481.276C142.83 481.276 141.415 482.696 141.415 484.448C141.415 486.2 142.83 487.621 144.575 487.621Z" fill="#BAD9E7"/>
<path d="M173.019 484.448C173.019 486.2 171.604 487.621 169.858 487.621C168.113 487.621 166.698 486.2 166.698 484.448C166.698 482.696 168.113 481.276 169.858 481.276C171.604 481.276 173.019 482.696 173.019 484.448Z" fill="#BAD9E7"/>
<path d="M195.142 487.621C196.887 487.621 198.302 486.2 198.302 484.448C198.302 482.696 196.887 481.276 195.142 481.276C193.396 481.276 191.981 482.696 191.981 484.448C191.981 486.2 193.396 487.621 195.142 487.621Z" fill="#BAD9E7"/>
<path d="M223.585 484.448C223.585 486.2 222.17 487.621 220.425 487.621C218.679 487.621 217.264 486.2 217.264 484.448C217.264 482.696 218.679 481.276 220.425 481.276C222.17 481.276 223.585 482.696 223.585 484.448Z" fill="#BAD9E7"/>
<path d="M245.708 487.621C247.453 487.621 248.868 486.2 248.868 484.448C248.868 482.696 247.453 481.276 245.708 481.276C243.962 481.276 242.547 482.696 242.547 484.448C242.547 486.2 243.962 487.621 245.708 487.621Z" fill="#BAD9E7"/>
<path d="M274.151 484.448C274.151 486.2 272.736 487.621 270.991 487.621C269.245 487.621 267.83 486.2 267.83 484.448C267.83 482.696 269.245 481.276 270.991 481.276C272.736 481.276 274.151 482.696 274.151 484.448Z" fill="#BAD9E7"/>
<path d="M296.274 487.621C298.019 487.621 299.434 486.2 299.434 484.448C299.434 482.696 298.019 481.276 296.274 481.276C294.528 481.276 293.113 482.696 293.113 484.448C293.113 486.2 294.528 487.621 296.274 487.621Z" fill="#BAD9E7"/>
<path d="M324.717 484.448C324.717 486.2 323.302 487.621 321.557 487.621C319.811 487.621 318.396 486.2 318.396 484.448C318.396 482.696 319.811 481.276 321.557 481.276C323.302 481.276 324.717 482.696 324.717 484.448Z" fill="#BAD9E7"/>
<path d="M346.84 487.621C348.585 487.621 350 486.2 350 484.448C350 482.696 348.585 481.276 346.84 481.276C345.094 481.276 343.679 482.696 343.679 484.448C343.679 486.2 345.094 487.621 346.84 487.621Z" fill="#BAD9E7"/>
<path d="M21.3208 509.828C21.3208 511.58 19.9058 513 18.1604 513C16.4149 513 15 511.58 15 509.828C15 508.076 16.4149 506.655 18.1604 506.655C19.9058 506.655 21.3208 508.076 21.3208 509.828Z" fill="#BAD9E7"/>
<path d="M43.4434 513C45.1889 513 46.6038 511.58 46.6038 509.828C46.6038 508.076 45.1889 506.655 43.4434 506.655C41.6979 506.655 40.283 508.076 40.283 509.828C40.283 511.58 41.6979 513 43.4434 513Z" fill="#BAD9E7"/>
<path d="M71.8868 509.828C71.8868 511.58 70.4719 513 68.7264 513C66.981 513 65.566 511.58 65.566 509.828C65.566 508.076 66.981 506.655 68.7264 506.655C70.4719 506.655 71.8868 508.076 71.8868 509.828Z" fill="#BAD9E7"/>
<path d="M94.0094 513C95.7549 513 97.1698 511.58 97.1698 509.828C97.1698 508.076 95.7549 506.655 94.0094 506.655C92.264 506.655 90.8491 508.076 90.8491 509.828C90.8491 511.58 92.264 513 94.0094 513Z" fill="#BAD9E7"/>
<path d="M122.453 509.828C122.453 511.58 121.038 513 119.292 513C117.547 513 116.132 511.58 116.132 509.828C116.132 508.076 117.547 506.655 119.292 506.655C121.038 506.655 122.453 508.076 122.453 509.828Z" fill="#BAD9E7"/>
<path d="M144.575 513C146.321 513 147.736 511.58 147.736 509.828C147.736 508.076 146.321 506.655 144.575 506.655C142.83 506.655 141.415 508.076 141.415 509.828C141.415 511.58 142.83 513 144.575 513Z" fill="#BAD9E7"/>
<path d="M173.019 509.828C173.019 511.58 171.604 513 169.858 513C168.113 513 166.698 511.58 166.698 509.828C166.698 508.076 168.113 506.655 169.858 506.655C171.604 506.655 173.019 508.076 173.019 509.828Z" fill="#BAD9E7"/>
<path d="M195.142 513C196.887 513 198.302 511.58 198.302 509.828C198.302 508.076 196.887 506.655 195.142 506.655C193.396 506.655 191.981 508.076 191.981 509.828C191.981 511.58 193.396 513 195.142 513Z" fill="#BAD9E7"/>
<path d="M223.585 509.828C223.585 511.58 222.17 513 220.425 513C218.679 513 217.264 511.58 217.264 509.828C217.264 508.076 218.679 506.655 220.425 506.655C222.17 506.655 223.585 508.076 223.585 509.828Z" fill="#BAD9E7"/>
<path d="M245.708 513C247.453 513 248.868 511.58 248.868 509.828C248.868 508.076 247.453 506.655 245.708 506.655C243.962 506.655 242.547 508.076 242.547 509.828C242.547 511.58 243.962 513 245.708 513Z" fill="#BAD9E7"/>
<path d="M274.151 509.828C274.151 511.58 272.736 513 270.991 513C269.245 513 267.83 511.58 267.83 509.828C267.83 508.076 269.245 506.655 270.991 506.655C272.736 506.655 274.151 508.076 274.151 509.828Z" fill="#BAD9E7"/>
<path d="M296.274 513C298.019 513 299.434 511.58 299.434 509.828C299.434 508.076 298.019 506.655 296.274 506.655C294.528 506.655 293.113 508.076 293.113 509.828C293.113 511.58 294.528 513 296.274 513Z" fill="#BAD9E7"/>
<path d="M324.717 509.828C324.717 511.58 323.302 513 321.557 513C319.811 513 318.396 511.58 318.396 509.828C318.396 508.076 319.811 506.655 321.557 506.655C323.302 506.655 324.717 508.076 324.717 509.828Z" fill="#BAD9E7"/>
<path d="M346.84 513C348.585 513 350 511.58 350 509.828C350 508.076 348.585 506.655 346.84 506.655C345.094 506.655 343.679 508.076 343.679 509.828C343.679 511.58 345.094 513 346.84 513Z" fill="#BAD9E7"/>
</g>
<defs>
<linearGradient id="paint0_linear" x1="400.06" y1="91.3894" x2="204.788" y2="551.649" gradientUnits="userSpaceOnUse">
<stop stop-color="#BAD9E7" stop-opacity="0.44"/>
<stop offset="1" stop-color="white"/>
</linearGradient>
</defs>
</svg>
